<svg width="15" height="16" viewBox="0 0 15 16" fill="none" xmlns="http://www.w3.org/2000/svg">
<path d="M13.1282 1.68421H12.3077V0H10.6667V1.68421H4.10256V0H2.46154V1.68421H1.64103C1.2058 1.68421 0.788397 1.86165 0.480645 2.1775C0.172893 2.49336 0 2.92174 0 3.36842V14.3158C0 14.7625 0.172893 15.1909 0.480645 15.5067C0.788397 15.8226 1.2058 16 1.64103 16H13.1282C13.5634 16 13.9808 15.8226 14.2886 15.5067C14.5963 15.1909 14.7692 14.7625 14.7692 14.3158V3.36842C14.7692 2.92174 14.5963 2.49336 14.2886 2.1775C13.9808 1.86165 13.5634 1.68421 13.1282 1.68421ZM13.1282 14.3158H1.64103V5.05263H13.1282V14.3158Z" fill="#595959"/>
</svg>
