<?xml version="1.0" encoding="utf-8"?>
<!-- Generator: Adobe Illustrator 17.0.0, SVG Export Plug-In . SVG Version: 6.00 Build 0)  -->
<!DOCTYPE svg PUBLIC "-//W3C//DTD SVG 1.1//EN" "http://www.w3.org/Graphics/SVG/1.1/DTD/svg11.dtd">
<svg version="1.1" id="Layer_1" xmlns="http://www.w3.org/2000/svg" xmlns:xlink="http://www.w3.org/1999/xlink" x="0px" y="0px"
	 width="382px" height="228px" viewBox="0 0 382 228" enable-background="new 0 0 382 228" xml:space="preserve">
<g opacity="0.025">
	<defs>
		<filter id="Adobe_OpacityMaskFilter" filterUnits="userSpaceOnUse" x="0" y="69.064" width="381.991" height="158.934">
			<feColorMatrix  type="matrix" values="1 0 0 0 0  0 1 0 0 0  0 0 1 0 0  0 0 0 1 0"/>
		</filter>
	</defs>
	<mask maskUnits="userSpaceOnUse" x="0" y="69.064" width="381.991" height="158.934" id="mask0_8276_13862">
		<path fill="#FFFFFF" filter="url(#Adobe_OpacityMaskFilter)" d="M285.109,212.042C216.24,216.695,153.518,69.065,0,155.057V228
			h381.991v-40.32C331.973,141.771,333.977,208.741,285.109,212.042z"/>
	</mask>
	<g mask="url(#mask0_8276_13862)">
		
			<linearGradient id="SVGID_1_" gradientUnits="userSpaceOnUse" x1="165.9545" y1="-17.6945" x2="217.4675" y2="184.2407" gradientTransform="matrix(1 0 0 -1 0 229)">
			<stop  offset="0" style="stop-color:#230094"/>
			<stop  offset="1" style="stop-color:#E61EFF"/>
		</linearGradient>
		<path fill="url(#SVGID_1_)" d="M381.991,69.064H0v158.934h381.991V69.064z"/>
	</g>
	<defs>
		<filter id="Adobe_OpacityMaskFilter_1_" filterUnits="userSpaceOnUse" x="0" y="54.964" width="381.991" height="157.532">
			<feColorMatrix  type="matrix" values="1 0 0 0 0  0 1 0 0 0  0 0 1 0 0  0 0 0 1 0"/>
		</filter>
	</defs>
	<mask maskUnits="userSpaceOnUse" x="0" y="54.964" width="381.991" height="157.532" id="mask1_8276_13862">
		<path fill="#FFFFFF" filter="url(#Adobe_OpacityMaskFilter_1_)" d="M0,140.957c153.518-85.993,216.241,71.54,285.109,66.888
			c48.868-3.302,46.864-70.273,96.882-24.363v-9.903c-50.018-45.909-48.014,21.061-96.882,24.363
			C216.24,202.595,153.518,54.964,0,140.957z"/>
	</mask>
	<g mask="url(#mask1_8276_13862)">
		
			<linearGradient id="SVGID_2_" gradientUnits="userSpaceOnUse" x1="184.3925" y1="55.7665" x2="213.7395" y2="231.3408" gradientTransform="matrix(1 0 0 -1 0 229)">
			<stop  offset="0" style="stop-color:#230094"/>
			<stop  offset="1" style="stop-color:#E61EFF"/>
		</linearGradient>
		<path fill="url(#SVGID_2_)" d="M381.991,54.964H0v157.532h381.991V54.964z"/>
	</g>
	<defs>
		<filter id="Adobe_OpacityMaskFilter_2_" filterUnits="userSpaceOnUse" x="0" y="120.58" width="381.991" height="107.413">
			<feColorMatrix  type="matrix" values="1 0 0 0 0  0 1 0 0 0  0 0 1 0 0  0 0 0 1 0"/>
		</filter>
	</defs>
	<mask maskUnits="userSpaceOnUse" x="0" y="120.58" width="381.991" height="107.413" id="mask2_8276_13862">
		<path fill="#FFFFFF" filter="url(#Adobe_OpacityMaskFilter_2_)" d="M381.991,227.997v-9.618
			c-48.474-26.626-50.336-4.465-79.048,9.618H381.991z M203.103,227.997C149.62,209.611,146.015,120.583,0,172.046v55.951H203.103z"
			/>
	</mask>
	<g mask="url(#mask2_8276_13862)">
		
			<linearGradient id="SVGID_3_" gradientUnits="userSpaceOnUse" x1="169.9049" y1="-78.0228" x2="206.0549" y2="149.4919" gradientTransform="matrix(1 0 0 -1 0 229)">
			<stop  offset="0" style="stop-color:#230094"/>
			<stop  offset="1" style="stop-color:#E61EFF"/>
		</linearGradient>
		<path fill="url(#SVGID_3_)" d="M381.991,120.58H0v107.413h381.991V120.58z"/>
	</g>
	<path fill="#E6E6E6" d="M0,184.443c54.52-19.215,87.384-17.067,110.5-6.632c25.491,11.507,39.13,33.092,56.882,47.225
		c1.292,1.028,2.605,2.018,3.947,2.96h14.881c-0.228-0.078-0.454-0.158-0.68-0.239c-10.531-3.782-18.955-10.56-27.064-18.368
		c-13.789-13.279-26.666-29.534-47.448-39.086c-4.057-1.865-8.415-3.474-13.139-4.756C75.649,159.515,45.299,160.733,0,176.698
		V184.443z"/>
	<defs>
		<filter id="Adobe_OpacityMaskFilter_3_" filterUnits="userSpaceOnUse" x="0" y="165.353" width="150.109" height="62.639">
			<feColorMatrix  type="matrix" values="1 0 0 0 0  0 1 0 0 0  0 0 1 0 0  0 0 0 1 0"/>
		</filter>
	</defs>
	<mask maskUnits="userSpaceOnUse" x="0" y="165.353" width="150.109" height="62.639" id="mask3_8276_13862">
		<path fill="#FFFFFF" filter="url(#Adobe_OpacityMaskFilter_3_)" d="M150.109,227.99C123.165,201.048,97.003,165.351,0,199.539
			v28.451H150.109z"/>
	</mask>
	<g mask="url(#mask3_8276_13862)">
		
			<linearGradient id="SVGID_4_" gradientUnits="userSpaceOnUse" x1="57.9069" y1="-75.5511" x2="89.9904" y2="126.2919" gradientTransform="matrix(1 0 0 -1 0 229)">
			<stop  offset="0" style="stop-color:#230094"/>
			<stop  offset="1" style="stop-color:#E61EFF"/>
		</linearGradient>
		<path fill="url(#SVGID_4_)" d="M150.109,165.353H0v62.639h150.109V165.353z"/>
	</g>
	<defs>
		<filter id="Adobe_OpacityMaskFilter_4_" filterUnits="userSpaceOnUse" x="0" y="69.064" width="381.991" height="158.934">
			<feColorMatrix  type="matrix" values="1 0 0 0 0  0 1 0 0 0  0 0 1 0 0  0 0 0 1 0"/>
		</filter>
	</defs>
	<mask maskUnits="userSpaceOnUse" x="0" y="69.064" width="381.991" height="158.934" id="mask4_8276_13862">
		<path fill="#FFFFFF" filter="url(#Adobe_OpacityMaskFilter_4_)" d="M238.499,228h64.444c39.391-19.883,37.902-78.087,79.048-40.32
			c-50.018-45.909-48.014,21.061-96.882,24.363C216.24,216.695,153.518,69.065,0,155.057v13.788
			C134.271,113.623,154.631,175.662,238.499,228z"/>
	</mask>
	<g mask="url(#mask4_8276_13862)">
		
			<linearGradient id="SVGID_5_" gradientUnits="userSpaceOnUse" x1="184.8247" y1="37.7833" x2="206.0997" y2="184.9475" gradientTransform="matrix(1 0 0 -1 0 229)">
			<stop  offset="0" style="stop-color:#230094"/>
			<stop  offset="1" style="stop-color:#E61EFF"/>
		</linearGradient>
		<path fill="url(#SVGID_5_)" d="M381.991,69.064H0v158.934h381.991V69.064z"/>
	</g>
	<defs>
		<filter id="Adobe_OpacityMaskFilter_5_" filterUnits="userSpaceOnUse" x="292.087" y="0" width="89.913" height="115.729">
			<feColorMatrix  type="matrix" values="1 0 0 0 0  0 1 0 0 0  0 0 1 0 0  0 0 0 1 0"/>
		</filter>
	</defs>
	<mask maskUnits="userSpaceOnUse" x="292.087" y="0" width="89.913" height="115.729" id="mask5_8276_13862">
		<path fill="#FFFFFF" filter="url(#Adobe_OpacityMaskFilter_5_)" d="M292.087,0C309.16,39.414,323.462,92.29,382,115.729V0H292.087
			z"/>
	</mask>
	<g mask="url(#mask5_8276_13862)">
		
			<linearGradient id="SVGID_6_" gradientUnits="userSpaceOnUse" x1="396.9695" y1="235.9509" x2="244.7645" y2="71.3273" gradientTransform="matrix(1 0 0 -1 0 229)">
			<stop  offset="0" style="stop-color:#230094"/>
			<stop  offset="1" style="stop-color:#E61EFF"/>
		</linearGradient>
		<path fill="url(#SVGID_6_)" d="M382,0h-89.913v115.729H382V0z"/>
	</g>
	<defs>
		<filter id="Adobe_OpacityMaskFilter_6_" filterUnits="userSpaceOnUse" x="277.9" y="0" width="104.083" height="130.953">
			<feColorMatrix  type="matrix" values="1 0 0 0 0  0 1 0 0 0  0 0 1 0 0  0 0 0 1 0"/>
		</filter>
	</defs>
	<mask maskUnits="userSpaceOnUse" x="277.9" y="0" width="104.083" height="130.953" id="mask6_8276_13862">
		<path fill="#FFFFFF" filter="url(#Adobe_OpacityMaskFilter_6_)" d="M381.983,130.147C314.915,106.226,303.946,43.379,286.347,0
			H277.9c20.994,41.598,31.619,107.217,104.083,130.953V130.147z"/>
	</mask>
	<g mask="url(#mask6_8276_13862)">
		
			<linearGradient id="SVGID_7_" gradientUnits="userSpaceOnUse" x1="342.0655" y1="179.4752" x2="227.3015" y2="28.4792" gradientTransform="matrix(1 0 0 -1 0 229)">
			<stop  offset="0" style="stop-color:#230094"/>
			<stop  offset="1" style="stop-color:#E61EFF"/>
		</linearGradient>
		<path fill="url(#SVGID_7_)" d="M381.983,0H277.9v130.953h104.083V0z"/>
	</g>
	<defs>
		<filter id="Adobe_OpacityMaskFilter_7_" filterUnits="userSpaceOnUse" x="348.255" y="0" width="33.726" height="80.881">
			<feColorMatrix  type="matrix" values="1 0 0 0 0  0 1 0 0 0  0 0 1 0 0  0 0 0 1 0"/>
		</filter>
	</defs>
	<mask maskUnits="userSpaceOnUse" x="348.255" y="0" width="33.726" height="80.881" id="mask7_8276_13862">
		<path fill="#FFFFFF" filter="url(#Adobe_OpacityMaskFilter_7_)" d="M348.255,0c7.26,25.518,5.041,56.989,33.726,80.881V0.001
			L381.98,0H348.255z"/>
	</mask>
	<g mask="url(#mask7_8276_13862)">
		
			<linearGradient id="SVGID_8_" gradientUnits="userSpaceOnUse" x1="438.2028" y1="286.5733" x2="291.6447" y2="90.0248" gradientTransform="matrix(1 0 0 -1 0 229)">
			<stop  offset="0" style="stop-color:#230094"/>
			<stop  offset="1" style="stop-color:#E61EFF"/>
		</linearGradient>
		<path fill="url(#SVGID_8_)" d="M381.981,0h-33.726v80.881h33.726V0z"/>
	</g>
	<path fill="#E6E6E6" d="M381.985,54.61C371.831,36.79,371.424,17.031,366.833,0h-6.788c1.45,3.948,2.541,8.094,3.475,12.372
		c3.792,17.366,4.995,36.894,17.052,54.081c0.456,0.649,0.926,1.294,1.413,1.936V54.61z"/>
</g>
</svg>
