<svg width="44" height="45" viewBox="0 0 44 45" fill="none" xmlns="http://www.w3.org/2000/svg">
<path d="M40.0546 9.45706C39.8244 9.16006 39.4889 8.96276 39.1175 8.90587C38.746 8.84899 38.3669 8.93685 38.0583 9.15134C37.7498 9.36584 37.5353 9.69058 37.4592 10.0586C37.3831 10.4266 37.4511 10.8098 37.6493 11.1291C39.3587 13.5851 40.4661 16.409 40.8818 19.3723C41.2975 22.3357 41.0098 25.3553 40.0422 28.1868C39.0745 31.0184 37.454 33.5825 35.3116 35.6716C33.1693 37.7608 30.5653 39.3164 27.7103 40.2125C24.8553 41.1087 21.8294 41.3203 18.8775 40.8303C15.9255 40.3402 13.1303 39.1623 10.718 37.3917C8.30576 35.621 6.34408 33.3075 4.99169 30.6382C3.6393 27.9689 2.93417 25.0187 2.93334 22.0264C2.95182 17.9237 4.28509 13.935 6.73741 10.6459C9.18974 7.35677 12.6319 4.94048 16.5587 3.75173C16.7436 3.69684 16.9158 3.60607 17.0657 3.4846C17.2155 3.36312 17.3399 3.21333 17.4318 3.04377C17.5238 2.87421 17.5814 2.6882 17.6014 2.49637C17.6215 2.30454 17.6035 2.11064 17.5487 1.92574C17.4938 1.74084 17.403 1.56856 17.2815 1.41874C17.16 1.26892 17.0103 1.14449 16.8407 1.05256C16.6711 0.96063 16.4851 0.902997 16.2933 0.882953C16.1015 0.862908 15.9076 0.880844 15.7227 0.935737C11.812 2.09997 8.30224 4.32879 5.58553 7.37311C2.86883 10.4174 1.05226 14.1573 0.338875 18.1747C-0.374513 22.1921 0.043384 26.3287 1.54586 30.1222C3.04833 33.9158 5.57618 37.2167 8.84688 39.6562C12.1176 42.0956 16.0022 43.5774 20.0667 43.936C24.1311 44.2946 28.2152 43.5157 31.8625 41.6866C35.5098 39.8574 38.5765 37.05 40.7199 33.5781C42.8633 30.1062 43.999 26.1066 44 22.0264C44.0081 17.5307 42.6305 13.1417 40.0546 9.45706Z" fill="#078805"/>
<path d="M27.4411 3.75154C29.7276 4.44533 31.8624 5.56497 33.7331 7.05154C33.8843 7.17096 34.0575 7.25942 34.2429 7.31189C34.4283 7.36435 34.6222 7.37979 34.8136 7.35732C35.0049 7.33485 35.19 7.27491 35.3582 7.18092C35.5263 7.08693 35.6744 6.96074 35.7938 6.80954C35.9132 6.65835 36.0017 6.48511 36.0541 6.29973C36.1066 6.11434 36.122 5.92044 36.0996 5.72909C36.0771 5.53774 36.0171 5.35269 35.9232 5.1845C35.8292 5.01632 35.703 4.86829 35.5518 4.74888C33.3722 3.02285 30.8832 1.7286 28.2185 0.935547C27.845 0.824687 27.4429 0.86671 27.1004 1.05237C26.758 1.23803 26.5033 1.55212 26.3925 1.92555C26.2816 2.29897 26.3236 2.70114 26.5093 3.04358C26.6949 3.38602 27.009 3.64068 27.3825 3.75154H27.4411ZM20.9585 2.53421C21.101 2.66376 21.2647 2.76794 21.4425 2.84221C21.618 2.91981 21.8078 2.95989 21.9998 2.95989C22.1917 2.95989 22.3816 2.91981 22.5571 2.84221C22.7347 2.76768 22.8984 2.66354 23.0411 2.53421C23.1771 2.39717 23.2846 2.23464 23.3576 2.05594C23.4306 1.87725 23.4676 1.6859 23.4665 1.49288C23.4611 1.10456 23.3091 0.732611 23.0411 0.451548C22.8718 0.274956 22.661 0.143532 22.4278 0.069244C22.1947 -0.0050442 21.9467 -0.0198362 21.7065 0.026215C21.6146 0.0424776 21.5257 0.0721266 21.4425 0.114215C21.3489 0.145988 21.26 0.190398 21.1785 0.246215L20.9585 0.422215C20.8249 0.5617 20.7203 0.726179 20.6505 0.906214C20.5715 1.09163 20.5315 1.29134 20.5331 1.49288C20.5354 1.68454 20.5753 1.87389 20.6505 2.05021C20.725 2.22782 20.8291 2.39148 20.9585 2.53421ZM9.07847 20.0022C8.92149 20.1577 8.79688 20.3427 8.71184 20.5466C8.62679 20.7505 8.58301 20.9693 8.58301 21.1902C8.58301 21.4111 8.62679 21.6299 8.71184 21.8338C8.79688 22.0377 8.92149 22.2227 9.07847 22.3782L17.4678 30.8262C17.6233 30.9832 17.8083 31.1078 18.0122 31.1928C18.2161 31.2779 18.4349 31.3216 18.6558 31.3216C18.8767 31.3216 19.0955 31.2779 19.2994 31.1928C19.5033 31.1078 19.6883 30.9832 19.8438 30.8262L34.9211 15.6755C35.2459 15.3605 35.4322 14.9293 35.4391 14.4768C35.446 14.0243 35.2729 13.5877 34.9578 13.2629C34.6427 12.9381 34.2115 12.7517 33.759 12.7449C33.3066 12.738 32.8699 12.9111 32.5451 13.2262L18.6411 27.1302L11.4545 20.0022C11.1385 19.6887 10.7115 19.5128 10.2665 19.5128C9.82141 19.5128 9.3944 19.6887 9.07847 20.0022Z" fill="#078805"/>
</svg>
