<svg width="40" height="40" viewBox="0 0 40 40" fill="none" xmlns="http://www.w3.org/2000/svg">
<rect width="40" height="40" rx="5" fill="#F1F1F1" fill-opacity="0.01"/>
<path d="M19.6892 20.084L12.4023 25.4757L13.7574 22.2982L19.6892 20.084Z" fill="#E17726"/>
<path d="M3.5116 20.0908L9.42755 22.2991L10.7142 25.5183L3.5116 20.0908ZM16.7569 31.5512L19.9776 31.6125L18.852 35.4363L14.9221 34.3543L16.7569 31.5512ZM6.42695 31.5512L8.25499 34.3543L4.33165 35.4363L3.21289 31.6125L6.42695 31.5512Z" fill="#E27625"/>
<path d="M10.5373 24.6988L10.6689 28.9498L6.73047 28.7706L7.85077 27.0805L7.86497 27.0643L10.5373 24.6988ZM12.6019 24.6514L15.3151 27.0644L15.3291 27.0806L16.4494 28.7707L12.5118 28.9498L12.6019 24.6514ZM8.36837 31.5641L10.5189 33.2397L8.02077 34.4457L8.36837 31.5641ZM14.812 31.5638L15.1524 34.4458L12.6613 33.2395L14.812 31.5638Z" fill="#E27625"/>
<path d="M12.717 33.0811L15.2449 34.3051L12.8935 35.4226L12.9179 34.684L12.717 33.0811ZM10.4637 33.0816L10.2708 34.6719L10.2866 35.4217L7.92969 34.3051L10.4637 33.0816Z" fill="#D5BFB2"/>
<path d="M9.73293 29.5039L10.3935 30.8922L8.14453 30.2333L9.73293 29.5039ZM13.4468 29.504L15.0427 30.2333L12.7863 30.892L13.4468 29.504Z" fill="#233447"/>
<path d="M8.5425 31.5488L8.17897 34.5366L6.23047 31.6141L8.5425 31.5488ZM14.6421 31.5488L16.9542 31.6141L14.9984 34.5367L14.6421 31.5488ZM16.5086 28.6006L14.8259 30.3155L13.5286 29.7226L12.9075 31.0284L12.5003 28.783L16.5086 28.6006ZM6.67505 28.6006L10.6841 28.783L10.2768 31.0284L9.65562 29.7228L8.36516 30.3155L6.67505 28.6006Z" fill="#CC6228"/>
<path d="M6.56055 28.2486L8.46429 30.1803L8.53023 32.0874L6.56055 28.2486ZM16.6236 28.2451L14.6503 32.0908L14.7246 30.1803L16.6236 28.2451ZM10.5899 28.3662L10.6665 28.8485L10.8558 30.0499L10.7341 33.7399L10.1586 30.7756L10.1584 30.745L10.5899 28.3662ZM12.5913 28.3595L13.0239 30.745L13.0237 30.7756L12.4468 33.7473L12.4239 33.004L12.334 30.028L12.5913 28.3595Z" fill="#E27525"/>
<path d="M14.8954 30.1045L14.831 31.7614L12.8227 33.3261L12.4168 33.0393L12.8718 30.6953L14.8954 30.1045ZM8.29688 30.1045L10.3134 30.6953L10.7685 33.0393L10.3625 33.3261L8.35419 31.7613L8.29688 30.1045Z" fill="#F5841F"/>
<path d="M7.54688 33.9395L10.1162 35.1569L10.1053 34.637L10.3204 34.4483H12.8633L13.086 34.6363L13.0696 35.1558L15.6227 33.9425L14.3803 34.9691L12.8781 36.0009H10.2997L8.79851 34.9649L7.54688 33.9395Z" fill="#C0AC9D"/>
<path d="M12.5319 32.918L12.8952 33.1746L13.1081 34.8731L12.8 34.613H10.3804L10.0781 34.8783L10.284 33.1747L10.6474 32.918H12.5319Z" fill="#161616"/>
<path d="M19.207 20.2324L20.0817 22.8565L19.5354 25.5097L19.9244 25.8098L19.398 26.2114L19.7937 26.5169L19.2698 26.9939L19.5914 27.2269L18.7379 28.2236L15.2374 27.2044L15.207 27.1881L12.6845 25.0602L19.207 20.2324ZM3.97432 20.2324L10.4969 25.0602L7.97427 27.1881L7.94397 27.2044L4.44338 28.2236L3.5899 27.2269L3.91123 26.9942L3.38771 26.5169L3.78254 26.2117L3.24827 25.809L3.65193 25.5088L3.09961 22.8566L3.97432 20.2324Z" fill="#763E1A"/>
<path d="M15.0673 26.983L18.7764 28.0629L19.9814 31.7768H16.8023L14.6119 31.8044L16.2049 28.6993L15.0673 26.983ZM8.11635 26.983L6.97861 28.6993L8.57182 31.8044L6.38238 31.7768H3.20898L4.40722 28.063L8.11635 26.983ZM13.9391 22.2812L12.9016 25.0832L12.6815 28.8684L12.5972 30.0548L12.5905 33.0856H10.5931L10.5866 30.0605L10.5021 28.8674L10.2818 25.0832L9.24451 22.2812H13.9391Z" fill="#F5841F"/>
<path d="M11.5453 3.18359C14.1586 5.28609 17.1554 5.15644 18.0117 5.15644C17.8244 17.1139 16.3973 14.7428 11.5453 18.0957C6.69333 14.7428 5.27521 17.1139 5.08789 5.15644C5.93522 5.15644 8.93201 5.28609 11.5453 3.18359Z" stroke="white" stroke-width="2.21538" stroke-miterlimit="10" stroke-linecap="round" stroke-linejoin="round"/>
<path d="M29.9414 27.0449C33.7847 27.0449 36.9003 23.9292 36.9003 20.0859C36.9003 16.2426 33.7847 13.127 29.9414 13.127C26.0981 13.127 22.9824 16.2426 22.9824 20.0859C22.9824 23.9292 26.0981 27.0449 29.9414 27.0449Z" stroke="#F1F1F1" stroke-width="1.2" stroke-linecap="round" stroke-linejoin="round"/>
<path d="M22.9824 20.0859H36.9003" stroke="#F1F1F1" stroke-width="1.2" stroke-linecap="round" stroke-linejoin="round"/>
<path d="M29.9418 13.127C31.6824 15.0326 32.6717 17.5056 32.7254 20.0859C32.6717 22.6663 31.6824 25.1392 29.9418 27.0449C28.2012 25.1392 27.212 22.6663 27.1582 20.0859C27.212 17.5056 28.2012 15.0326 29.9418 13.127Z" stroke="#F1F1F1" stroke-width="1.2" stroke-linecap="round" stroke-linejoin="round"/>
</svg>
