<svg width="32" height="32" viewBox="0 0 32 32" fill="none" xmlns="http://www.w3.org/2000/svg">
<path fill-rule="evenodd" clip-rule="evenodd" d="M15.9028 31.8057C24.6857 31.8057 31.8057 24.6857 31.8057 15.9028C31.8057 7.11994 24.6857 0 15.9028 0C7.11994 0 0 7.11994 0 15.9028C0 24.6857 7.11994 31.8057 15.9028 31.8057ZM18.5378 7.95121C19.9351 8.19342 21.2766 8.61262 22.5155 9.19019C22.5342 9.19019 22.5435 9.19951 22.5528 9.20882C24.7606 12.46 25.8505 16.121 25.4406 20.341C25.4406 20.3596 25.4313 20.3783 25.4127 20.3876C23.7359 21.6172 22.1243 22.3625 20.522 22.8562C20.494 22.8655 20.4661 22.8562 20.4382 22.8469C20.0748 22.3345 19.7395 21.7942 19.4414 21.226C19.4321 21.198 19.4414 21.1515 19.4786 21.1421C20.0096 20.9372 20.522 20.7043 21.0064 20.4155C21.053 20.3969 21.053 20.341 21.0157 20.313C20.9645 20.2711 20.9132 20.2315 20.862 20.1919C20.8108 20.1524 20.7595 20.1128 20.7083 20.0708C20.6897 20.0522 20.6617 20.0522 20.6431 20.0615C17.4758 21.5241 14.0197 21.5241 10.8151 20.0615C10.7965 20.0522 10.7685 20.0522 10.7499 20.0708C10.6987 20.1081 10.6474 20.1477 10.5962 20.1873C10.545 20.2269 10.4937 20.2665 10.4425 20.3037C10.4145 20.3317 10.4145 20.3876 10.4518 20.4062C10.9455 20.6857 11.4486 20.9279 11.9796 21.1328C12.0168 21.1421 12.0355 21.1794 12.0168 21.2167C11.728 21.7849 11.3927 22.3252 11.0201 22.8376C11.0107 22.8562 10.9828 22.8655 10.9548 22.8562C9.36187 22.3625 7.75027 21.6172 6.07346 20.3876C6.05482 20.3783 6.04551 20.3596 6.04551 20.341C5.70083 16.6893 6.3995 13.0003 8.93335 9.20882C8.94267 9.19951 8.95198 9.19019 8.9613 9.19019C10.2096 8.61262 11.5417 8.19342 12.9391 7.95121C12.967 7.95121 12.995 7.96053 13.0043 7.97916C13.1813 8.28658 13.3769 8.67783 13.5073 8.99456C14.9894 8.77099 16.4967 8.77099 17.9788 8.99456C18.1092 8.68715 18.3049 8.28658 18.4726 7.97916C18.4808 7.97002 18.4908 7.96278 18.5021 7.95795C18.5134 7.95312 18.5255 7.95082 18.5378 7.95121ZM10.7406 16.1396C10.7406 17.2296 11.5417 18.1146 12.5012 18.1146C13.4794 18.1146 14.2619 17.2296 14.2619 16.1396C14.2712 15.059 13.4887 14.1647 12.5012 14.1647C11.5231 14.1647 10.7406 15.0497 10.7406 16.1396ZM17.2336 16.1396C17.2336 17.2296 18.0347 18.1146 18.9942 18.1146C19.9817 18.1146 20.7549 17.2296 20.7549 16.1396C20.7642 15.059 19.9817 14.1647 18.9942 14.1647C18.0161 14.1647 17.2336 15.0497 17.2336 16.1396Z" fill="#9FA4B3"/>
</svg>
