<svg xmlns="http://www.w3.org/2000/svg" width="30" height="23" viewBox="0 0 30 23" fill="none"><path d="M25.0001 1.83956C23.1606 0.982052 21.169 0.359665 19.0944 6.36193e-05C19.0762 -0.00051811 19.0581 0.00289545 19.0414 0.0100644C19.0246 0.0172333 19.0097 0.0279834 18.9976 0.0415564C18.7486 0.497974 18.4581 1.0927 18.2645 1.54912C16.064 1.21718 13.8262 1.21718 11.6257 1.54912C11.4321 1.07887 11.1416 0.497974 10.8789 0.0415564C10.865 0.0138947 10.8235 6.36193e-05 10.782 6.36193e-05C8.70742 0.359665 6.72961 0.982052 4.87628 1.83956C4.86245 1.83956 4.84862 1.85339 4.83479 1.86722C1.0728 7.49637 0.0354907 12.9734 0.547231 18.3951C0.547231 18.4227 0.561062 18.4504 0.588724 18.4642C3.07827 20.2899 5.471 21.3963 7.83608 22.1294C7.87757 22.1432 7.91906 22.1294 7.93289 22.1017C8.48612 21.341 8.98403 20.5388 9.41279 19.6952C9.44045 19.6398 9.41279 19.5845 9.35747 19.5707C8.56911 19.2664 7.82224 18.9068 7.08921 18.4919C7.03389 18.4642 7.03389 18.3812 7.07538 18.3397C7.22752 18.2291 7.37966 18.1046 7.5318 17.994C7.55946 17.9663 7.60095 17.9663 7.62861 17.9801C12.3864 20.1516 17.5177 20.1516 22.2201 17.9801C22.2478 17.9663 22.2893 17.9663 22.3169 17.994C22.4691 18.1184 22.6212 18.2291 22.7734 18.3536C22.8287 18.3951 22.8287 18.478 22.7595 18.5057C22.0403 18.9345 21.2796 19.2802 20.4913 19.5845C20.436 19.5983 20.4221 19.6675 20.436 19.709C20.8785 20.5527 21.3765 21.3549 21.9159 22.1156C21.9573 22.1294 21.9988 22.1432 22.0403 22.1294C24.4192 21.3963 26.812 20.2899 29.3015 18.4642C29.3292 18.4504 29.343 18.4227 29.343 18.3951C29.9516 12.1297 28.3334 6.69418 25.0554 1.86722C25.0416 1.85339 25.0278 1.83956 25.0001 1.83956ZM10.132 15.0895C8.70742 15.0895 7.51797 13.7756 7.51797 12.1574C7.51797 10.5392 8.67976 9.22522 10.132 9.22522C11.5981 9.22522 12.7598 10.553 12.746 12.1574C12.746 13.7756 11.5842 15.0895 10.132 15.0895ZM19.7721 15.0895C18.3475 15.0895 17.1581 13.7756 17.1581 12.1574C17.1581 10.5392 18.3198 9.22522 19.7721 9.22522C21.2381 9.22522 22.3999 10.553 22.3861 12.1574C22.3861 13.7756 21.2381 15.0895 19.7721 15.0895Z" fill="#1E1E1E"></path></svg>