<svg width="24" height="19" viewBox="0 0 24 19" fill="none" xmlns="http://www.w3.org/2000/svg">
<path d="M20.3302 1.55597C18.7563 0.819536 17.0912 0.296268 15.3789 0C15.1656 0.385594 14.9165 0.904218 14.7446 1.31681C12.8985 1.03922 11.0693 1.03922 9.25715 1.31681C9.0854 0.904312 8.83058 0.385594 8.61533 0C6.90139 0.296405 5.23486 0.821005 3.66018 1.55981C0.526681 6.29503 -0.322788 10.9125 0.1019 15.4646C2.18024 17.0167 4.19437 17.9595 6.17455 18.5765C6.66668 17.8997 7.10171 17.1832 7.47515 16.4344C6.76417 16.1637 6.07877 15.8301 5.42709 15.4376C5.59858 15.3105 5.76604 15.178 5.92921 15.0404C9.87815 16.8875 14.1689 16.8875 18.0708 15.0404C18.2347 15.1771 18.402 15.3096 18.5728 15.4376C17.9201 15.8312 17.2334 16.1654 16.521 16.4363C16.8965 17.1882 17.3308 17.9054 17.8216 18.5783C19.8036 17.9615 21.8196 17.0186 23.898 15.4646C24.3964 10.1876 23.0467 5.61253 20.3302 1.55597ZM8.01318 12.6652C6.82771 12.6652 5.85552 11.5584 5.85552 10.2108C5.85552 8.86312 6.80699 7.75453 8.01318 7.75453C9.21946 7.75453 10.1916 8.86115 10.1708 10.2108C10.1727 11.5584 9.21946 12.6652 8.01318 12.6652ZM15.9867 12.6652C14.8012 12.6652 13.8291 11.5584 13.8291 10.2108C13.8291 8.86312 14.7805 7.75453 15.9867 7.75453C17.193 7.75453 18.1651 8.86115 18.1444 10.2108C18.1444 11.5584 17.193 12.6652 15.9867 12.6652Z" fill="#5865F2"/>
</svg>
