<svg width="44" height="45" viewBox="0 0 44 45" fill="none" xmlns="http://www.w3.org/2000/svg">
<path d="M40.0546 9.58206C39.8244 9.28506 39.4889 9.08776 39.1175 9.03087C38.746 8.97399 38.3669 9.06185 38.0583 9.27634C37.7498 9.49084 37.5353 9.81558 37.4592 10.1836C37.3831 10.5516 37.4511 10.9348 37.6493 11.2541C39.3587 13.7101 40.4661 16.534 40.8818 19.4973C41.2975 22.4607 41.0098 25.4803 40.0422 28.3118C39.0745 31.1434 37.454 33.7075 35.3116 35.7966C33.1693 37.8858 30.5653 39.4414 27.7103 40.3375C24.8553 41.2337 21.8294 41.4453 18.8775 40.9553C15.9255 40.4652 13.1303 39.2873 10.718 37.5167C8.30576 35.746 6.34408 33.4325 4.99169 30.7632C3.6393 28.0939 2.93417 25.1437 2.93334 22.1514C2.95182 18.0487 4.28509 14.06 6.73741 10.7709C9.18974 7.48177 12.6319 5.06548 16.5587 3.87673C16.7436 3.82184 16.9158 3.73107 17.0657 3.6096C17.2155 3.48812 17.3399 3.33833 17.4318 3.16877C17.5238 2.99921 17.5814 2.8132 17.6014 2.62137C17.6215 2.42954 17.6035 2.23564 17.5487 2.05074C17.4938 1.86584 17.403 1.69356 17.2815 1.54374C17.16 1.39392 17.0103 1.26949 16.8407 1.17756C16.6711 1.08563 16.4851 1.028 16.2933 1.00795C16.1015 0.987908 15.9076 1.00584 15.7227 1.06074C11.812 2.22497 8.30224 4.45379 5.58553 7.49811C2.86883 10.5424 1.05226 14.2823 0.338875 18.2997C-0.374513 22.3171 0.043384 26.4537 1.54586 30.2472C3.04833 34.0408 5.57618 37.3417 8.84688 39.7812C12.1176 42.2206 16.0022 43.7024 20.0667 44.061C24.1311 44.4196 28.2152 43.6407 31.8625 41.8116C35.5098 39.9824 38.5765 37.175 40.7199 33.7031C42.8633 30.2312 43.999 26.2316 44 22.1514C44.0081 17.6557 42.6305 13.2667 40.0546 9.58206Z" fill="#B21919"/>
<path d="M27.4412 3.75154C29.7277 4.44533 31.8625 5.56497 33.7332 7.05154C33.8844 7.17096 34.0577 7.25942 34.2431 7.31189C34.4284 7.36435 34.6223 7.37979 34.8137 7.35732C35.005 7.33485 35.1901 7.27491 35.3583 7.18092C35.5265 7.08693 35.6745 6.96074 35.7939 6.80954C35.9133 6.65835 36.0018 6.48511 36.0542 6.29973C36.1067 6.11434 36.1222 5.92044 36.0997 5.72909C36.0772 5.53774 36.0173 5.35269 35.9233 5.1845C35.8293 5.01632 35.7031 4.86829 35.5519 4.74888C33.3723 3.02285 30.8833 1.7286 28.2186 0.935547C27.8452 0.824687 27.443 0.86671 27.1005 1.05237C26.7581 1.23803 26.5034 1.55212 26.3926 1.92555C26.2817 2.29897 26.3237 2.70114 26.5094 3.04358C26.6951 3.38602 27.0092 3.64068 27.3826 3.75154H27.4412ZM20.9586 2.53421C21.1011 2.66376 21.2648 2.76794 21.4426 2.84221C21.6181 2.91981 21.808 2.95989 21.9999 2.95989C22.1919 2.95989 22.3817 2.91981 22.5572 2.84221C22.7349 2.76768 22.8985 2.66354 23.0412 2.53421C23.1772 2.39717 23.2847 2.23464 23.3577 2.05594C23.4307 1.87725 23.4677 1.6859 23.4666 1.49288C23.4612 1.10456 23.3093 0.73261 23.0412 0.451548C22.8719 0.274956 22.6611 0.143532 22.428 0.069244C22.1949 -0.00504421 21.9469 -0.0198362 21.7066 0.026215C21.6148 0.0424776 21.5258 0.0721266 21.4426 0.114215C21.349 0.145988 21.2602 0.190398 21.1786 0.246215L20.9586 0.422215C20.8251 0.5617 20.7204 0.726179 20.6506 0.906214C20.5716 1.09163 20.5316 1.29134 20.5333 1.49288C20.5356 1.68454 20.5754 1.87389 20.6506 2.05021C20.7251 2.22782 20.8293 2.39148 20.9586 2.53421Z" fill="#B21919"/>
<path fill-rule="evenodd" clip-rule="evenodd" d="M13.5492 13.5492C14.2814 12.8169 15.4686 12.8169 16.2008 13.5492L31.2007 28.5492C31.933 29.2815 31.933 30.4685 31.2007 31.2007C30.4685 31.933 29.2812 31.933 28.549 31.2007L13.5492 16.2008C12.8169 15.4686 12.8169 14.2814 13.5492 13.5492Z" fill="#B21919"/>
<path fill-rule="evenodd" clip-rule="evenodd" d="M31.2007 13.5492C31.933 14.2814 31.933 15.4686 31.2007 16.2008L16.2008 31.2007C15.4686 31.933 14.2814 31.933 13.5492 31.2007C12.8169 30.4685 12.8169 29.2812 13.5492 28.549L28.5492 13.5492C29.2815 12.8169 30.4685 12.8169 31.2007 13.5492Z" fill="#B21919"/>
</svg>
