<svg width="24" height="25" viewBox="0 0 24 25" fill="none" xmlns="http://www.w3.org/2000/svg">
<path d="M8.24113 0.671355C5.76529 1.53025 3.63014 3.16045 2.14928 5.32251C0.66842 7.48457 -0.0800833 10.0645 0.013712 12.6834C0.107507 15.3023 1.03866 17.8221 2.67039 19.8727C4.30212 21.9233 6.54843 23.3966 9.07936 24.0762C11.1313 24.6056 13.281 24.6289 15.3439 24.1439C17.2126 23.7242 18.9403 22.8263 20.3578 21.5382C21.8331 20.1567 22.904 18.3992 23.4552 16.4546C24.0544 14.34 24.161 12.1162 23.7669 9.95391H12.2445V14.7336H18.9175C18.7842 15.4959 18.4984 16.2235 18.0772 16.8728C17.6561 17.5221 17.1084 18.0798 16.4667 18.5124C15.6518 19.0515 14.7333 19.4141 13.77 19.5772C12.8039 19.7568 11.8129 19.7568 10.8468 19.5772C9.86763 19.3747 8.94133 18.9706 8.12691 18.3905C6.81854 17.4643 5.83614 16.1486 5.31988 14.631C4.7949 13.085 4.7949 11.4089 5.31988 9.86292C5.68736 8.77925 6.29486 7.79257 7.09702 6.97652C8.015 6.02551 9.17719 5.34573 10.4561 5.01175C11.735 4.67777 13.0811 4.7025 14.3469 5.08323C15.3357 5.38676 16.2399 5.91709 16.9874 6.63194C17.7399 5.88339 18.491 5.13292 19.2408 4.3805C19.628 3.97591 20.05 3.59066 20.4314 3.17639C19.2903 2.11451 17.9509 1.28824 16.4899 0.744919C13.8294 -0.221106 10.9184 -0.247067 8.24113 0.671355Z" fill="white"/>
<path d="M8.24095 0.671319C10.918 -0.247727 13.829 -0.222449 16.4897 0.742947C17.951 1.28996 19.2898 2.12021 20.4293 3.18603C20.0421 3.60031 19.6336 3.98749 19.2387 4.39015C18.4876 5.13998 17.7371 5.88723 16.9873 6.6319C16.2397 5.91705 15.3355 5.38672 14.3467 5.08319C13.0814 4.70113 11.7353 4.67497 10.456 5.00758C9.1768 5.3402 8.0139 6.01873 7.09491 6.96874C6.29275 7.78479 5.68525 8.77147 5.31777 9.85514L1.30469 6.74805C2.74113 3.89952 5.22823 1.72061 8.24095 0.671319Z" fill="#E33629"/>
<path d="M0.240044 9.8261C0.455742 8.75709 0.813846 7.72185 1.30478 6.74805L5.31786 9.86288C4.79288 11.4089 4.79288 13.085 5.31786 14.631C3.98081 15.6634 2.64312 16.7011 1.30478 17.7439C0.0757855 15.2975 -0.299036 12.5102 0.240044 9.8261Z" fill="#F8BD00"/>
<path d="M12.2445 9.95215H23.7669C24.161 12.1144 24.0544 14.3382 23.4552 16.4528C22.9039 18.3974 21.8331 20.1549 20.3578 21.5365C19.0627 20.5259 17.7618 19.5231 16.4667 18.5126C17.1088 18.0795 17.6568 17.5212 18.0779 16.8712C18.4991 16.2213 18.7846 15.4929 18.9175 14.7299H12.2445C12.2426 13.1386 12.2445 11.5454 12.2445 9.95215Z" fill="#587DBD"/>
<path d="M1.30273 17.7438C2.64107 16.7113 3.97877 15.6737 5.31582 14.6309C5.8331 16.149 6.81691 17.4648 8.12672 18.3903C8.94368 18.9677 9.87198 19.3686 10.8524 19.5674C11.8186 19.747 12.8095 19.747 13.7756 19.5674C14.7389 19.4043 15.6575 19.0416 16.4723 18.5026C17.7674 19.5132 19.0683 20.5159 20.3634 21.5265C18.9462 22.8152 17.2184 23.7138 15.3495 24.1341C13.2866 24.6191 11.1369 24.5958 9.08498 24.0663C7.46213 23.633 5.94629 22.8692 4.63245 21.8227C3.24183 20.7186 2.10604 19.3273 1.30273 17.7438Z" fill="#319F43"/>
</svg>
