<svg width="20" height="18" viewBox="0 0 20 18" fill="none" xmlns="http://www.w3.org/2000/svg">
<path d="M8.45352 17.0521C9.23835 17.0521 9.87458 16.4158 9.87458 15.631C9.87458 14.8462 9.23835 14.21 8.45352 14.21C7.6687 14.21 7.03247 14.8462 7.03247 15.631C7.03247 16.4158 7.6687 17.0521 8.45352 17.0521Z" fill="black"/>
<path d="M15.0839 17.0521C15.8687 17.0521 16.5049 16.4158 16.5049 15.631C16.5049 14.8462 15.8687 14.21 15.0839 14.21C14.2991 14.21 13.6628 14.8462 13.6628 15.631C13.6628 16.4158 14.2991 17.0521 15.0839 17.0521Z" fill="black"/>
<path d="M10.8209 9.47436H12.7156V6.64172H15.5483V4.74699H12.7156V1.92383H10.8209V4.74699H7.98828V6.64172H10.8209V9.47436Z" fill="black"/>
<path d="M7.97836 13.2632H15.5573C15.7481 13.2626 15.9344 13.2044 16.0916 13.0962C16.2488 12.988 16.3697 12.8349 16.4384 12.6568L19.1194 5.68422H17.092L14.9036 11.3684H8.6131L4.35941 1.16527C4.21519 0.819536 3.97172 0.524315 3.65977 0.31691C3.34782 0.109504 2.98139 -0.000776017 2.60678 4.11051e-06H0.399414V1.89474H2.60678L7.10678 12.6758C7.17785 12.8488 7.29854 12.9969 7.45365 13.1014C7.60875 13.206 7.79132 13.2622 7.97836 13.2632Z" fill="black"/>
</svg>
