<svg width="436" height="423" viewBox="0 0 436 423" fill="none" xmlns="http://www.w3.org/2000/svg">
<path d="M93.8778 271.645H18.7434V237.726L93.8778 148.404H129.834V239.652H148.466V271.657H129.834V299.402H93.8778V271.645ZM93.8778 239.652V192.929L54.1683 239.652H93.8778Z" fill="#407BFF"/>
<path d="M161.32 224.564C161.32 196.35 166.395 176.594 176.557 165.32C186.719 154.047 202.19 148.404 222.983 148.404C232.972 148.404 241.171 149.639 247.592 152.096C254 154.566 259.235 157.764 263.285 161.715C267.335 165.666 270.521 169.815 272.855 174.174C275.188 178.532 277.053 183.607 278.473 189.41C281.239 200.486 282.621 212.031 282.621 224.045C282.621 250.987 278.065 270.694 268.953 283.189C259.84 295.685 244.147 301.921 221.86 301.921C209.364 301.921 199.276 299.933 191.583 295.944C183.891 291.956 177.569 286.128 172.642 278.423C169.062 272.953 166.284 265.483 164.283 255.988C162.32 246.517 161.32 236.034 161.32 224.564ZM202.239 224.662C202.239 243.566 203.906 256.482 207.252 263.396C210.599 270.311 215.439 273.781 221.785 273.781C225.971 273.781 229.601 272.311 232.676 269.373C235.75 266.434 238.01 261.791 239.467 255.445C240.924 249.098 241.64 239.208 241.64 225.774C241.64 206.067 239.973 192.818 236.627 186.027C233.281 179.236 228.268 175.853 221.588 175.853C214.772 175.853 209.845 179.31 206.808 186.237C203.758 193.152 202.239 205.968 202.239 224.662Z" fill="#407BFF"/>
<path d="M370.536 271.645H295.401V237.726L370.536 148.404H406.491V239.652H425.124V271.657H406.491V299.402H370.536V271.645ZM370.536 239.652V192.929L330.826 239.652H370.536Z" fill="#407BFF"/>
<g opacity="0.3">
<path d="M157.356 98.5946C158.632 98.5946 159.665 97.5609 159.665 96.2857C159.665 95.0104 158.632 93.9767 157.356 93.9767C156.081 93.9767 155.047 95.0104 155.047 96.2857C155.047 97.5609 156.081 98.5946 157.356 98.5946Z" fill="#407BFF"/>
<path d="M1.62987 184.978C2.53002 184.978 3.25973 184.248 3.25973 183.348C3.25973 182.448 2.53002 181.718 1.62987 181.718C0.729716 181.718 0 182.448 0 183.348C0 184.248 0.729716 184.978 1.62987 184.978Z" fill="#407BFF"/>
<path d="M270.904 423C272.193 423 273.237 421.955 273.237 420.666C273.237 419.377 272.193 418.333 270.904 418.333C269.615 418.333 268.57 419.377 268.57 420.666C268.57 421.955 269.615 423 270.904 423Z" fill="#407BFF"/>
<path d="M327.023 328.048C327.923 328.048 328.653 327.318 328.653 326.418C328.653 325.518 327.923 324.788 327.023 324.788C326.123 324.788 325.393 325.518 325.393 326.418C325.393 327.318 326.123 328.048 327.023 328.048Z" fill="#407BFF"/>
<path d="M433.643 36.1781C434.544 36.1781 435.273 35.4484 435.273 34.5483C435.273 33.6481 434.544 32.9184 433.643 32.9184C432.743 32.9184 432.014 33.6481 432.014 34.5483C432.014 35.4484 432.743 36.1781 433.643 36.1781Z" fill="#407BFF"/>
<path d="M123.203 3.25973C124.103 3.25973 124.833 2.53002 124.833 1.62987C124.833 0.729716 124.103 0 123.203 0C122.303 0 121.573 0.729716 121.573 1.62987C121.573 2.53002 122.303 3.25973 123.203 3.25973Z" fill="#407BFF"/>
<path d="M254.42 87.1979C255.32 87.1979 256.05 86.4682 256.05 85.568C256.05 84.6679 255.32 83.9382 254.42 83.9382C253.52 83.9382 252.79 84.6679 252.79 85.568C252.79 86.4682 253.52 87.1979 254.42 87.1979Z" fill="#407BFF"/>
</g>
<path d="M85.9138 87.2102C100.855 87.2102 112.967 75.0981 112.967 60.1569C112.967 45.2158 100.855 33.1036 85.9138 33.1036C70.9727 33.1036 58.8605 45.2158 58.8605 60.1569C58.8605 75.0981 70.9727 87.2102 85.9138 87.2102Z" fill="#407BFF"/>
<path opacity="0.7" d="M85.9138 87.2102C100.855 87.2102 112.967 75.0981 112.967 60.1569C112.967 45.2158 100.855 33.1036 85.9138 33.1036C70.9727 33.1036 58.8605 45.2158 58.8605 60.1569C58.8605 75.0981 70.9727 87.2102 85.9138 87.2102Z" fill="white"/>
<path opacity="0.2" d="M76.5914 39.7466C72.8008 39.7466 69.1953 40.5244 65.9232 41.9321C61.5399 46.7352 58.8605 53.1436 58.8605 60.1569C58.8605 75.0974 70.9734 87.1979 85.9015 87.1979C89.7045 87.1979 93.3346 86.42 96.6191 85.0001C96.6191 85.0001 96.6191 85.0001 96.6191 84.9877C100.978 80.1845 103.632 73.8009 103.632 66.7999C103.657 51.8594 91.5442 39.7466 76.5914 39.7466Z" fill="#407BFF"/>
<path opacity="0.2" d="M71.4302 49.3652C72.7941 49.3652 73.8997 48.2596 73.8997 46.8957C73.8997 45.5319 72.7941 44.4262 71.4302 44.4262C70.0663 44.4262 68.9607 45.5319 68.9607 46.8957C68.9607 48.2596 70.0663 49.3652 71.4302 49.3652Z" fill="#407BFF"/>
<path opacity="0.2" d="M100.521 46.8957C101.885 46.8957 102.99 45.7901 102.99 44.4263C102.99 43.0624 101.885 41.9568 100.521 41.9568C99.157 41.9568 98.0514 43.0624 98.0514 44.4263C98.0514 45.7901 99.157 46.8957 100.521 46.8957Z" fill="#407BFF"/>
<path opacity="0.2" d="M94.0014 66.1084C96.2381 66.1084 98.0514 64.2952 98.0514 62.0584C98.0514 59.8217 96.2381 58.0085 94.0014 58.0085C91.7646 58.0085 89.9514 59.8217 89.9514 62.0584C89.9514 64.2952 91.7646 66.1084 94.0014 66.1084Z" fill="#407BFF"/>
<path opacity="0.2" d="M79.7771 79.0115C82.7639 79.0115 85.1853 76.5902 85.1853 73.6033C85.1853 70.6165 82.7639 68.1951 79.7771 68.1951C76.7902 68.1951 74.3689 70.6165 74.3689 73.6033C74.3689 76.5902 76.7902 79.0115 79.7771 79.0115Z" fill="#407BFF"/>
<path d="M383.451 404.8C396.565 404.8 407.195 394.169 407.195 381.056C407.195 367.942 396.565 357.311 383.451 357.311C370.337 357.311 359.707 367.942 359.707 381.056C359.707 394.169 370.337 404.8 383.451 404.8Z" fill="#407BFF"/>
<path opacity="0.3" d="M383.451 404.8C396.565 404.8 407.195 394.169 407.195 381.056C407.195 367.942 396.565 357.311 383.451 357.311C370.337 357.311 359.707 367.942 359.707 381.056C359.707 394.169 370.337 404.8 383.451 404.8Z" fill="white"/>
<path opacity="0.4" d="M398.428 362.645C396.268 361.991 393.971 361.645 391.588 361.645C378.475 361.645 367.844 372.277 367.844 385.39C367.844 392.823 371.252 399.441 376.598 403.8C378.759 404.454 381.056 404.8 383.439 404.8C396.552 404.8 407.183 394.169 407.183 381.056C407.183 373.622 403.775 366.992 398.428 362.645Z" fill="#407BFF"/>
<path d="M360.769 388.094C335.419 400.021 354.323 409.22 390.045 396.379C423.111 384.488 435.693 369.498 406.158 374.141C407.689 380.451 366.263 396.589 360.769 388.094Z" fill="#407BFF"/>
<path opacity="0.2" d="M398.144 148.404C364.942 170.84 321.96 200.424 310.094 271.645H307.563C319.108 201.289 360.522 170.926 393.736 148.404H398.144Z" fill="black"/>
<path d="M226.416 371.202C205.462 371.202 184.669 361.744 174.569 346.273C168.333 336.716 161.085 316.701 182.668 289.993L184.595 291.549C169.333 310.44 166.506 329.394 176.643 344.927C188.978 363.831 218.13 373.338 242.986 366.572C268.459 359.645 283.918 337.481 285.412 305.785C290.511 197.362 348.112 163.975 390.18 139.588C416.308 124.438 435.187 113.486 431.038 90.3959C430.458 87.1979 429.186 84.9753 427.136 83.6295C421.765 80.0857 411.27 82.5305 399.12 85.3705C375.277 90.9268 342.63 98.5329 323.183 65.454L325.307 64.2069C343.84 95.7176 374.178 88.6549 398.552 82.975C411.257 80.0116 422.234 77.4557 428.494 81.5798C431.137 83.3208 432.767 86.0743 433.471 89.9761C437.928 114.77 417.406 126.673 391.415 141.737C349.853 165.839 292.919 198.844 287.881 305.921C286.338 338.765 270.212 361.744 243.64 368.967C238.035 370.474 232.219 371.202 226.416 371.202Z" fill="#407BFF"/>
<path opacity="0.2" d="M226.416 371.202C205.462 371.202 184.669 361.744 174.569 346.273C168.333 336.716 161.085 316.701 182.668 289.993L184.595 291.549C169.333 310.44 166.506 329.394 176.643 344.927C188.978 363.831 218.13 373.338 242.986 366.572C268.459 359.645 283.918 337.481 285.412 305.785C290.511 197.362 348.112 163.975 390.18 139.588C416.308 124.438 435.187 113.486 431.038 90.3959C430.458 87.1979 429.186 84.9753 427.136 83.6295C421.765 80.0857 411.27 82.5305 399.12 85.3705C375.277 90.9268 342.63 98.5329 323.183 65.454L325.307 64.2069C343.84 95.7176 374.178 88.6549 398.552 82.975C411.257 80.0116 422.234 77.4557 428.494 81.5798C431.137 83.3208 432.767 86.0743 433.471 89.9761C437.928 114.77 417.406 126.673 391.415 141.737C349.853 165.839 292.919 198.844 287.881 305.921C286.338 338.765 270.212 361.744 243.64 368.967C238.035 370.474 232.219 371.202 226.416 371.202Z" fill="white"/>
<path d="M297.71 36.1904C306.18 36.0423 314.478 38.8205 314.478 38.8205C314.478 38.8205 328.011 61.9967 329.665 67.3061C329.097 72.5414 320.256 81.1229 320.256 81.1229L297.71 36.1904Z" fill="#407BFF"/>
<path opacity="0.3" d="M297.71 36.1904C306.18 36.0423 314.478 38.8205 314.478 38.8205C314.478 38.8205 328.011 61.9967 329.665 67.3061C329.097 72.5414 320.256 81.1229 320.256 81.1229L297.71 36.1904Z" fill="white"/>
<path d="M337.938 148.775C332.826 142.292 327.813 135.699 323.664 128.537C322.627 126.747 321.639 124.932 320.713 123.08C320.182 122.03 319.676 120.968 319.182 119.906C318.75 118.98 317.787 117.61 317.7 116.597C316.219 100.953 321.578 89.4328 316.429 76.8754L296.092 84.8271C296.092 84.8271 297.821 107.201 301.772 120.585C304.217 128.895 309.761 136.082 315.108 142.737C316.774 144.824 318.392 146.947 320.059 149.034C321.639 151.01 323.405 152.812 324.986 154.776C327.393 157.751 328.183 160.604 326.356 164.11C326.257 164.296 326.158 164.481 326.047 164.666C325.529 165.58 327.961 166.617 329.48 164.691C331.999 161.505 331.604 161.703 333.752 158.986C335.061 157.332 336.555 155.554 337.852 154.01C339.123 152.516 339.16 150.318 337.938 148.775Z" fill="#407BFF"/>
<path opacity="0.7" d="M337.938 148.775C332.826 142.292 327.813 135.699 323.664 128.537C322.627 126.747 321.639 124.932 320.713 123.08C320.182 122.03 319.676 120.968 319.182 119.906C318.75 118.98 317.787 117.61 317.7 116.597C316.219 100.953 321.578 89.4328 316.429 76.8754L296.092 84.8271C296.092 84.8271 297.821 107.201 301.772 120.585C304.217 128.895 309.761 136.082 315.108 142.737C316.774 144.824 318.392 146.947 320.059 149.034C321.639 151.01 323.405 152.812 324.986 154.776C327.393 157.751 328.183 160.604 326.356 164.11C326.257 164.296 326.158 164.481 326.047 164.666C325.529 165.58 327.961 166.617 329.48 164.691C331.999 161.505 331.604 161.703 333.752 158.986C335.061 157.332 336.555 155.554 337.852 154.01C339.123 152.516 339.16 150.318 337.938 148.775Z" fill="white"/>
<path opacity="0.3" d="M332.962 142.342C330.233 145.639 324.701 149.898 322.269 151.627C322.8 152.22 323.331 152.825 323.85 153.43C328.875 150.145 332.838 145.898 334.345 144.169C333.888 143.564 333.419 142.947 332.962 142.342Z" fill="#407BFF"/>
<path opacity="0.3" d="M337.938 148.775C337.889 148.713 337.839 148.664 337.79 148.59C336.938 149.479 336.333 150.911 336.234 152.504C336.148 153.603 336.333 154.615 336.703 155.405C337.111 154.924 337.493 154.455 337.876 154.01C339.136 152.516 339.148 150.331 337.938 148.775Z" fill="#407BFF"/>
<path d="M292.87 51.0074C290.746 54.1066 288.239 57.1565 284.992 59.8853C283.387 61.2558 281.547 62.5029 279.535 63.5648C278.522 64.0834 277.448 64.5279 276.349 64.8983L275.522 65.17L275.25 65.2564C275.052 65.3181 274.855 65.3675 274.657 65.4169C274.287 65.5034 273.916 65.5528 273.583 65.5898C272.249 65.6886 271.274 65.5034 270.484 65.3058C268.903 64.8736 267.854 64.3057 266.854 63.75C265.866 63.182 265.014 62.6017 264.199 62.009C262.594 60.7866 261.137 59.5519 259.779 58.243C257.05 55.6377 254.63 52.9336 252.382 49.9208C251.358 48.5503 251.642 46.6117 253.012 45.5869C254.074 44.7966 255.469 44.7843 256.519 45.4511L256.618 45.5128C259.532 47.3649 262.47 49.3158 265.335 51.0568C266.78 51.9088 268.2 52.7731 269.595 53.4399C270.274 53.7856 270.953 54.1066 271.558 54.3289C272.151 54.5635 272.731 54.687 272.892 54.6623C272.953 54.6623 272.879 54.5758 272.422 54.5882C272.311 54.5882 272.151 54.6129 272.003 54.6376C271.916 54.6499 271.817 54.6746 271.731 54.7117C271.644 54.7364 271.768 54.687 271.768 54.687L272.175 54.4771C272.719 54.2054 273.237 53.8597 273.768 53.5016C274.83 52.7855 275.83 51.8841 276.855 50.8839C278.892 48.8713 280.843 46.3524 282.905 43.7348L282.93 43.6977C285.041 41.0183 288.931 40.5615 291.61 42.6852C294.179 44.6855 294.685 48.3527 292.87 51.0074Z" fill="#407BFF"/>
<path opacity="0.7" d="M292.87 51.0074C290.746 54.1066 288.239 57.1565 284.992 59.8853C283.387 61.2558 281.547 62.5029 279.535 63.5648C278.522 64.0834 277.448 64.5279 276.349 64.8983L275.522 65.17L275.25 65.2564C275.052 65.3181 274.855 65.3675 274.657 65.4169C274.287 65.5034 273.916 65.5528 273.583 65.5898C272.249 65.6886 271.274 65.5034 270.484 65.3058C268.903 64.8736 267.854 64.3057 266.854 63.75C265.866 63.182 265.014 62.6017 264.199 62.009C262.594 60.7866 261.137 59.5519 259.779 58.243C257.05 55.6377 254.63 52.9336 252.382 49.9208C251.358 48.5503 251.642 46.6117 253.012 45.5869C254.074 44.7966 255.469 44.7843 256.519 45.4511L256.618 45.5128C259.532 47.3649 262.47 49.3158 265.335 51.0568C266.78 51.9088 268.2 52.7731 269.595 53.4399C270.274 53.7856 270.953 54.1066 271.558 54.3289C272.151 54.5635 272.731 54.687 272.892 54.6623C272.953 54.6623 272.879 54.5758 272.422 54.5882C272.311 54.5882 272.151 54.6129 272.003 54.6376C271.916 54.6499 271.817 54.6746 271.731 54.7117C271.644 54.7364 271.768 54.687 271.768 54.687L272.175 54.4771C272.719 54.2054 273.237 53.8597 273.768 53.5016C274.83 52.7855 275.83 51.8841 276.855 50.8839C278.892 48.8713 280.843 46.3524 282.905 43.7348L282.93 43.6977C285.041 41.0183 288.931 40.5615 291.61 42.6852C294.179 44.6855 294.685 48.3527 292.87 51.0074Z" fill="white"/>
<path d="M247.74 42.9445L249.184 45.377C249.184 45.377 250.296 48.612 252.506 49.2047L258.494 47.2662L258.198 46.7599C258.198 46.7599 258.198 46.7599 258.21 46.7599C257.445 45.5869 257.531 43.3397 257.79 41.4628C258.062 39.586 257.087 39.5243 256.371 39.9811C255.951 40.2528 255.667 41.1048 255.321 42.0308C255.025 41.6234 254.716 41.2282 254.358 40.8825L252.53 39.0551C251.74 38.2648 250.468 38.2278 249.641 38.9686L248.159 40.2898C247.394 40.9566 247.221 42.0679 247.74 42.9445Z" fill="#407BFF"/>
<path opacity="0.7" d="M247.74 42.9445L249.184 45.377C249.184 45.377 250.296 48.612 252.506 49.2047L258.494 47.2662L258.198 46.7599C258.198 46.7599 258.198 46.7599 258.21 46.7599C257.445 45.5869 257.531 43.3397 257.79 41.4628C258.062 39.586 257.087 39.5243 256.371 39.9811C255.951 40.2528 255.667 41.1048 255.321 42.0308C255.025 41.6234 254.716 41.2282 254.358 40.8825L252.53 39.0551C251.74 38.2648 250.468 38.2278 249.641 38.9686L248.159 40.2898C247.394 40.9566 247.221 42.0679 247.74 42.9445Z" fill="white"/>
<path d="M303.773 34.0544C298.031 35.4496 290.141 38.7217 284.819 42.0432C282.93 43.2162 281.992 45.4511 282.436 47.6242C284.807 59.2803 290.227 74.8875 296.08 84.8272L323.38 73.5293C323.566 68.7137 316.935 53.1312 310.193 38.0673C308.983 35.3755 306.662 33.3629 303.773 34.0544Z" fill="#407BFF"/>
<path opacity="0.8" d="M303.773 34.0544C298.031 35.4496 290.141 38.7217 284.819 42.0432C282.93 43.2162 281.992 45.4511 282.436 47.6242C284.807 59.2803 290.227 74.8875 296.08 84.8272L323.38 73.5293C323.566 68.7137 316.935 53.1312 310.193 38.0673C308.983 35.3755 306.662 33.3629 303.773 34.0544Z" fill="white"/>
<path opacity="0.3" d="M314.428 47.6242L309.008 45.8091C310.218 48.9824 314.601 52.9954 317.688 55.3537C316.663 52.8843 315.564 50.2913 314.428 47.6242Z" fill="#407BFF"/>
<path d="M301.982 21.8303C299.735 17.5334 294.858 15.3726 288.993 15.8541C284.054 16.2616 279.683 21.3117 280.201 24.0282C280.72 26.757 284.869 27.9053 285.622 28.856L282.202 31.3379C280.498 32.5726 280.164 34.9804 281.461 36.6349C282.905 38.4624 284.795 40.3762 285.906 41.7221C295.364 41.4752 302.365 37.8697 304.884 34.3877C303.982 29.9797 304.217 26.1025 301.982 21.8303Z" fill="#407BFF"/>
<path opacity="0.8" d="M301.982 21.8303C299.735 17.5334 294.858 15.3726 288.993 15.8541C284.054 16.2616 279.683 21.3117 280.201 24.0282C280.72 26.757 284.869 27.9053 285.622 28.856L282.202 31.3379C280.498 32.5726 280.164 34.9804 281.461 36.6349C282.905 38.4624 284.795 40.3762 285.906 41.7221C295.364 41.4752 302.365 37.8697 304.884 34.3877C303.982 29.9797 304.217 26.1025 301.982 21.8303Z" fill="white"/>
<path d="M288.635 37.24C293.797 37.24 297.982 33.0552 297.982 27.8929C297.982 22.7307 293.797 18.5459 288.635 18.5459C283.472 18.5459 279.287 22.7307 279.287 27.8929C279.287 33.0552 283.472 37.24 288.635 37.24Z" fill="#263238"/>
<path d="M377.512 135.773C377.376 131.711 377.203 132.118 377.08 128.661C377.006 126.562 376.993 124.228 376.981 122.215C376.968 120.252 375.573 118.56 373.647 118.165C372.005 117.832 370.375 117.523 368.733 117.165C366.597 116.708 364.497 116.227 362.398 115.609C360.781 115.14 359.163 114.622 357.583 114.041C355.879 113.424 354.2 112.757 352.533 112.041C350.582 111.201 348.668 110.312 346.754 109.399C344.618 108.374 342.507 107.324 340.408 106.25C332.283 92.7913 332.11 83.9382 323.38 73.5292L304.662 81.9996C304.662 81.9996 318.417 106.398 327.788 116.745C333.184 122.697 341.642 125.389 349.187 127.327C354.632 128.735 360.151 129.809 365.67 130.822C367.819 131.217 370.153 131.365 372.005 132.649C373.462 133.661 374.215 135.242 374.647 136.909C374.734 137.255 374.808 137.6 374.869 137.946C375.067 139.008 377.598 138.23 377.512 135.773Z" fill="#407BFF"/>
<path opacity="0.8" d="M377.512 135.773C377.376 131.711 377.203 132.118 377.08 128.661C377.006 126.562 376.993 124.228 376.981 122.215C376.968 120.252 375.573 118.56 373.647 118.165C372.005 117.832 370.375 117.523 368.733 117.165C366.597 116.708 364.497 116.227 362.398 115.609C360.781 115.14 359.163 114.622 357.583 114.041C355.879 113.424 354.2 112.757 352.533 112.041C350.582 111.201 348.668 110.312 346.754 109.399C344.618 108.374 342.507 107.324 340.408 106.25C332.283 92.7913 332.11 83.9382 323.38 73.5292L304.662 81.9996C304.662 81.9996 318.417 106.398 327.788 116.745C333.184 122.697 341.642 125.389 349.187 127.327C354.632 128.735 360.151 129.809 365.67 130.822C367.819 131.217 370.153 131.365 372.005 132.649C373.462 133.661 374.215 135.242 374.647 136.909C374.734 137.255 374.808 137.6 374.869 137.946C375.067 139.008 377.598 138.23 377.512 135.773Z" fill="white"/>
<path opacity="0.3" d="M368.017 117.005C367.276 116.844 366.535 116.684 365.782 116.498C365.843 120.758 363.843 128.13 363.102 130.352C363.88 130.501 364.67 130.649 365.448 130.797C367.621 124.944 367.967 118.746 368.017 117.005Z" fill="#407BFF"/>
<path opacity="0.3" d="M376.981 122.203C376.968 120.227 375.586 118.548 373.659 118.153C373.277 118.079 372.869 117.993 372.486 117.918C372.573 119.079 373.289 120.425 374.499 121.499C375.289 122.215 376.191 122.685 377.006 122.907C376.981 122.66 376.981 122.438 376.981 122.203Z" fill="#407BFF"/>
<path d="M295.599 24.5715C296.092 26.4483 294.006 28.4115 292.326 26.794C290.968 25.4852 288.919 23.275 287.239 22.2378C285.523 21.1635 287.807 19.2867 290.511 20.0152C293.03 20.6943 295.092 22.6946 295.599 24.5715Z" fill="white"/>
<path d="M295.734 84.2345C294.87 84.5555 296.451 86.0372 296.451 86.0372C296.451 86.0372 313.7 80.1228 324.22 74.0355C324.306 72.7637 323.38 72.0846 323.38 72.0846C323.38 72.0846 310.588 78.7646 295.734 84.2345Z" fill="#407BFF"/>
<path opacity="0.5" d="M295.734 84.2345C294.87 84.5555 296.451 86.0372 296.451 86.0372C296.451 86.0372 313.7 80.1228 324.22 74.0355C324.306 72.7637 323.38 72.0846 323.38 72.0846C323.38 72.0846 310.588 78.7646 295.734 84.2345Z" fill="white"/>
<path d="M308.452 33.2394C311.86 34.9557 315.058 36.7831 318.268 38.7958C319.861 39.7959 321.454 40.8331 323.01 41.9444C324.59 43.031 326.134 44.1793 327.702 45.4758L328.282 45.9573L329.011 46.6117C329.529 47.0686 329.912 47.4884 330.295 47.9082C330.69 48.3404 331.023 48.7602 331.344 49.18C331.678 49.5998 331.999 50.0196 332.295 50.4271C333.518 52.0693 334.518 53.7362 335.493 55.3908C337.395 58.7493 339.037 62.0955 340.395 65.7009C341 67.3061 340.185 69.0965 338.58 69.7015C337.37 70.1584 336.061 69.8126 335.222 68.9236L335.16 68.8619C332.678 66.2319 330.295 63.466 327.899 60.8854C325.553 58.3171 323.072 55.6871 321.059 54.5388C318.256 52.7855 315.132 51.0568 312.033 49.3405L302.698 44.1546L302.674 44.1422C299.686 42.4877 298.611 38.734 300.266 35.7459C301.883 32.8566 305.514 31.7577 308.452 33.2394Z" fill="#407BFF"/>
<path opacity="0.8" d="M308.452 33.2394C311.86 34.9557 315.058 36.7831 318.268 38.7958C319.861 39.7959 321.454 40.8331 323.01 41.9444C324.59 43.031 326.134 44.1793 327.702 45.4758L328.282 45.9573L329.011 46.6117C329.529 47.0686 329.912 47.4884 330.295 47.9082C330.69 48.3404 331.023 48.7602 331.344 49.18C331.678 49.5998 331.999 50.0196 332.295 50.4271C333.518 52.0693 334.518 53.7362 335.493 55.3908C337.395 58.7493 339.037 62.0955 340.395 65.7009C341 67.3061 340.185 69.0965 338.58 69.7015C337.37 70.1584 336.061 69.8126 335.222 68.9236L335.16 68.8619C332.678 66.2319 330.295 63.466 327.899 60.8854C325.553 58.3171 323.072 55.6871 321.059 54.5388C318.256 52.7855 315.132 51.0568 312.033 49.3405L302.698 44.1546L302.674 44.1422C299.686 42.4877 298.611 38.734 300.266 35.7459C301.883 32.8566 305.514 31.7577 308.452 33.2394Z" fill="white"/>
<path d="M343.359 71.7389L342.309 69.1088C342.309 69.1088 341.729 65.7503 339.63 64.8119L333.407 65.7874L333.629 66.3307C333.629 66.3307 333.629 66.3307 333.616 66.3307C334.197 67.6025 333.752 69.825 333.197 71.6277C332.641 73.4428 333.592 73.6527 334.37 73.307C334.826 73.1094 335.246 72.3068 335.728 71.4425C335.95 71.887 336.209 72.3315 336.506 72.739L338.024 74.8257C338.679 75.7271 339.926 75.9617 340.864 75.3567L342.531 74.2824C343.396 73.7515 343.741 72.6773 343.359 71.7389Z" fill="#407BFF"/>
<path opacity="0.8" d="M343.359 71.7389L342.309 69.1088C342.309 69.1088 341.729 65.7503 339.63 64.8119L333.407 65.7874L333.629 66.3307C333.629 66.3307 333.629 66.3307 333.616 66.3307C334.197 67.6025 333.752 69.825 333.197 71.6277C332.641 73.4428 333.592 73.6527 334.37 73.307C334.826 73.1094 335.246 72.3068 335.728 71.4425C335.95 71.887 336.209 72.3315 336.506 72.739L338.024 74.8257C338.679 75.7271 339.926 75.9617 340.864 75.3567L342.531 74.2824C343.396 73.7515 343.741 72.6773 343.359 71.7389Z" fill="white"/>
<path opacity="0.3" d="M303.242 47.439L301.735 47.5625L292.487 69.8867C293.03 69.9238 293.524 69.8744 293.993 69.7632C293.993 69.7632 306.045 65.2688 309.687 63.6265C307.242 58.5394 303.242 47.439 303.242 47.439Z" fill="#407BFF"/>
<path d="M286.363 53.2917C286.881 57.317 289.894 65.8614 292.487 69.8867C297.006 68.3309 304.538 65.3922 308.181 63.75C305.723 58.6628 303.143 51.6495 301.723 47.5625C297.846 47.8218 289.375 51.0074 286.363 53.2917Z" fill="white"/>
<path opacity="0.3" d="M292.487 60.3915C294.246 60.3915 295.673 58.9652 295.673 57.2059C295.673 55.4465 294.246 54.0202 292.487 54.0202C290.728 54.0202 289.301 55.4465 289.301 57.2059C289.301 58.9652 290.728 60.3915 292.487 60.3915Z" fill="#407BFF"/>
<path opacity="0.6" d="M296.895 54.6252C297.475 54.6252 297.945 54.1553 297.945 53.5757C297.945 52.996 297.475 52.5262 296.895 52.5262C296.315 52.5262 295.845 52.996 295.845 53.5757C295.845 54.1553 296.315 54.6252 296.895 54.6252Z" fill="#407BFF"/>
<path opacity="0.6" d="M299.661 53.551C300.241 53.551 300.71 53.0811 300.71 52.5015C300.71 51.9218 300.241 51.4519 299.661 51.4519C299.081 51.4519 298.611 51.9218 298.611 52.5015C298.611 53.0811 299.081 53.551 299.661 53.551Z" fill="#407BFF"/>
<path opacity="0.5" d="M304.538 62.4165L293.117 66.9233L292.438 64.6761L303.847 60.1693L304.538 62.4165Z" fill="#407BFF"/>
<path opacity="0.2" d="M241.529 234.022C241.282 243.332 240.591 250.481 239.455 255.445C237.998 261.791 235.738 266.434 232.664 269.373C229.601 272.311 225.971 273.781 221.785 273.781C215.439 273.781 210.586 270.323 207.252 263.396C206.709 262.273 206.215 260.989 205.758 259.556C198.708 265.619 192.139 272.237 186.101 279.349L179.545 287.079C183.088 290.672 187.114 293.623 191.608 295.957C199.301 299.933 209.389 301.933 221.884 301.933C224.082 301.933 226.206 301.871 228.268 301.748C235.824 290.561 242.085 278.534 246.913 265.915L265.249 218.106L241.529 234.022Z" fill="black"/>
<path d="M76.2333 299.204C83.1479 306.119 97.8414 320.812 97.8414 320.812L158.356 263.804C137.539 255.889 96.94 278.497 76.2333 299.204Z" fill="#263238"/>
<path d="M151.59 374.561C144.675 367.646 129.982 352.953 129.982 352.953L186.99 292.438C194.905 313.268 172.297 353.854 151.59 374.561Z" fill="#263238"/>
<path d="M234.293 238.38L257.865 192.929L212.414 216.501C197.807 224.07 184.336 233.639 172.358 244.912L94.8781 317.849L132.945 355.916L205.882 278.436C217.155 266.459 226.724 252.975 234.293 238.38Z" fill="#407BFF"/>
<path opacity="0.6" d="M234.293 238.38L257.865 192.929L212.414 216.501C197.807 224.07 184.336 233.639 172.358 244.912L94.8781 317.849L132.945 355.916L205.882 278.436C217.155 266.459 226.724 252.975 234.293 238.38Z" fill="white"/>
<path d="M185.891 280.831C194.688 280.831 201.82 273.7 201.82 264.903C201.82 256.106 194.688 248.975 185.891 248.975C177.094 248.975 169.963 256.106 169.963 264.903C169.963 273.7 177.094 280.831 185.891 280.831Z" fill="white"/>
<path d="M185.891 275.139C191.545 275.139 196.127 270.556 196.127 264.903C196.127 259.25 191.545 254.667 185.891 254.667C180.238 254.667 175.655 259.25 175.655 264.903C175.655 270.556 180.238 275.139 185.891 275.139Z" fill="#407BFF"/>
<path opacity="0.3" d="M145.824 342.247L108.547 304.97L139.07 276.25L174.544 311.725L145.824 342.247Z" fill="#407BFF"/>
<path d="M84.6667 333.357C56.7614 335.629 47.5131 353.496 44.3522 377.24C42.747 389.353 42.0308 401.602 31.8565 408.702C29.0289 410.665 30.4366 415.061 33.8692 414.949C71.3314 413.776 88.8031 395.44 91.0009 387.76C90.2478 392.613 89.1488 396.453 87.9264 399.453C86.667 402.553 90.0749 405.417 92.9025 403.639C103.423 397.046 116.61 384.933 117.486 365.263C109.72 354.323 84.6667 333.357 84.6667 333.357Z" fill="#407BFF"/>
<path opacity="0.2" d="M84.6667 333.357C56.7614 335.629 47.5131 353.496 44.3522 377.24C42.747 389.353 42.0308 401.602 31.8565 408.702C29.0289 410.665 30.4366 415.061 33.8692 414.949C71.3314 413.776 88.8031 395.44 91.0009 387.76C90.2478 392.613 89.1488 396.453 87.9264 399.453C86.667 402.553 90.0749 405.417 92.9025 403.639C103.423 397.046 116.61 384.933 117.486 365.263C109.72 354.323 84.6667 333.357 84.6667 333.357Z" fill="white"/>
<path d="M121.783 373.709L77.0853 329.011L100.891 323.862L126.932 349.903L121.783 373.709Z" fill="#407BFF"/>
</svg>
