<svg width="32" height="32" viewBox="0 0 32 32" fill="none" xmlns="http://www.w3.org/2000/svg">
<path d="M20.8725 15.9028C20.8725 17.2209 20.3489 18.4849 19.4169 19.4169C18.4849 20.3489 17.2209 20.8725 15.9028 20.8725C14.5848 20.8725 13.3208 20.3489 12.3888 19.4169C11.4568 18.4849 10.9332 17.2209 10.9332 15.9028C10.9332 15.6196 10.963 15.3429 11.0144 15.0746H9.27665V21.6958C9.27665 22.1563 9.64937 22.529 10.1099 22.529H21.6974C21.9181 22.5286 22.1296 22.4406 22.2855 22.2844C22.4414 22.1282 22.529 21.9165 22.529 21.6958V15.0746H20.7913C20.8426 15.3429 20.8725 15.6196 20.8725 15.9028ZM15.9028 19.2159C16.338 19.2158 16.7689 19.13 17.1709 18.9633C17.573 18.7967 17.9382 18.5525 18.2459 18.2447C18.5535 17.9369 18.7975 17.5715 18.964 17.1694C19.1304 16.7673 19.216 16.3364 19.2159 15.9012C19.2158 15.466 19.13 15.0351 18.9633 14.6331C18.7967 14.231 18.5525 13.8658 18.2447 13.5581C17.9369 13.2505 17.5715 13.0065 17.1694 12.84C16.7673 12.6736 16.3364 12.588 15.9012 12.5881C15.0223 12.5883 14.1794 12.9377 13.5581 13.5593C12.9368 14.1809 12.5879 15.0239 12.5881 15.9028C12.5883 16.7817 12.9377 17.6246 13.5593 18.2459C14.1809 18.8672 15.0239 19.2161 15.9028 19.2159ZM19.8785 12.4241H21.8647C21.9967 12.4241 22.1233 12.3718 22.2167 12.2786C22.3102 12.1855 22.3629 12.0591 22.3634 11.9271V9.94092C22.3634 9.80868 22.3108 9.68186 22.2173 9.58835C22.1238 9.49484 21.997 9.4423 21.8647 9.4423H19.8785C19.7463 9.4423 19.6195 9.49484 19.526 9.58835C19.4324 9.68186 19.3799 9.80868 19.3799 9.94092V11.9271C19.3816 12.2004 19.6052 12.4241 19.8785 12.4241ZM15.9028 0C11.6851 0 7.64019 1.67547 4.65783 4.65783C1.67547 7.64019 0 11.6851 0 15.9028C0 20.1205 1.67547 24.1655 4.65783 27.1478C7.64019 30.1302 11.6851 31.8057 15.9028 31.8057C17.9912 31.8057 20.0592 31.3943 21.9886 30.5951C23.918 29.7959 25.6711 28.6245 27.1478 27.1478C28.6245 25.6711 29.7959 23.918 30.5951 21.9886C31.3943 20.0592 31.8057 17.9912 31.8057 15.9028C31.8057 13.8144 31.3943 11.7465 30.5951 9.81708C29.7959 7.88766 28.6245 6.13454 27.1478 4.65783C25.6711 3.18112 23.918 2.00972 21.9886 1.21053C20.0592 0.411339 17.9912 0 15.9028 0ZM24.1856 22.3451C24.1856 23.3573 23.3573 24.1856 22.3451 24.1856H9.46053C8.44838 24.1856 7.62011 23.3573 7.62011 22.3451V9.46053C7.62011 8.44838 8.44838 7.62011 9.46053 7.62011H22.3451C23.3573 7.62011 24.1856 8.44838 24.1856 9.46053V22.3451Z" fill="#9FA4B3"/>
</svg>
