<svg width="30" height="31" viewBox="0 0 30 31" fill="none" xmlns="http://www.w3.org/2000/svg">
<path d="M25.3228 4.49958C22.3552 1.70088 18.3191 0.30127 13.2137 0.30127H0V13.9039H7.46484V5.79892H12.2485C15.4231 5.79892 17.8578 6.64702 19.5525 8.34358C21.2472 10.0401 22.0944 12.3632 22.0944 15.3121C22.0944 18.1611 21.2577 20.4551 19.5847 22.1946C17.9116 23.9341 15.4946 24.8038 12.3342 24.8038H7.46484H0V30.3013H12.3773C17.9545 30.3013 22.248 28.9734 25.2585 26.3176C28.2687 23.6621 29.774 20.0079 29.774 15.355C29.774 10.9171 28.2901 7.29863 25.3228 4.49958Z" fill="black"/>
<path d="M3.86492 23.2544C5.99945 23.2544 7.72983 21.5221 7.72983 19.3853C7.72983 17.2484 5.99945 15.5161 3.86492 15.5161C1.73038 15.5161 0 17.2484 0 19.3853C0 21.5221 1.73038 23.2544 3.86492 23.2544Z" fill="#D60000"/>
</svg>
