<svg width="101" height="24" viewBox="0 0 101 24" fill="none" xmlns="http://www.w3.org/2000/svg">
<path d="M39.8962 0C43.8779 0 47.1009 1.20324 49.5659 3.60919C52.0306 6.0154 53.2632 8.81524 53.2632 12.0084C53.2632 15.2466 52.014 18.0544 49.5157 20.4327C47.0173 22.8109 43.811 24 39.8962 24C35.9367 24 32.7134 22.8167 30.2264 20.4494C27.7392 18.0824 26.4956 15.2687 26.4956 12.0084C26.4956 8.80413 27.7307 6.00168 30.2013 3.60082C32.6715 1.20036 35.9032 0 39.8962 0ZM39.8962 19.1431C42.1045 19.1431 43.8834 18.4873 45.2329 17.1751C46.5823 15.8632 47.2573 14.1412 47.2573 12.0084C47.2573 9.86469 46.5823 8.13967 45.2329 6.83325C43.8832 5.52697 42.1045 4.87376 39.8962 4.87376C37.6767 4.87376 35.8894 5.52697 34.5343 6.83325C33.1791 8.13953 32.5015 9.86469 32.5015 12.0084C32.5015 14.1412 33.1791 15.8633 34.5343 17.1751C35.8894 18.4873 37.6765 19.1431 39.8962 19.1431Z" fill="#D60000"/>
<path d="M76.354 0.300873V4.58838H67.8887V23.698H62.0668V4.58852H53.6016V0.300873H76.354Z" fill="black"/>
<path d="M101 0.300873V4.58838H92.5347V23.698H86.7128V4.58852H78.2476V0.300873H101Z" fill="black"/>
<path d="M19.7494 3.57546C17.4349 1.39274 14.2871 0.301178 10.3054 0.301178H0V10.9099H5.82187V4.58882H9.55263C12.0286 4.58882 13.9274 5.25026 15.2491 6.57342C16.5708 7.89658 17.2315 9.70831 17.2315 12.0082C17.2315 14.2302 16.579 16.0192 15.2742 17.3759C13.9693 18.7325 12.0844 19.4108 9.61951 19.4108H5.82187H0V23.6983H9.65309C14.0028 23.6983 17.3513 22.6627 19.6992 20.5914C22.0469 18.5204 23.2209 15.6705 23.2209 12.0417C23.2209 8.58052 22.0636 5.75845 19.7494 3.57546Z" fill="black"/>
<path d="M3.01427 18.2027C4.679 18.2027 6.02854 16.8517 6.02854 15.1851C6.02854 13.5186 4.679 12.1676 3.01427 12.1676C1.34953 12.1676 0 13.5186 0 15.1851C0 16.8517 1.34953 18.2027 3.01427 18.2027Z" fill="#D60000"/>
</svg>
