<svg width="36" height="36" viewBox="0 0 36 36" fill="none" xmlns="http://www.w3.org/2000/svg">
<circle cx="18" cy="18" r="18" fill="#D9D9D9"/>
<path d="M23.4896 14.5015C23.1157 14.2878 22.635 14.2878 22.2077 14.5015L19.2166 16.2641L17.1869 17.3858L14.2493 19.1484C13.8754 19.362 13.3947 19.362 12.9674 19.1484L10.6706 17.7596C10.2967 17.546 10.0297 17.1187 10.0297 16.638V13.9674C10.0297 13.5401 10.2433 13.1128 10.6706 12.8457L12.9674 11.5104C13.3412 11.2967 13.822 11.2967 14.2493 11.5104L16.546 12.8991C16.9199 13.1128 17.1869 13.5401 17.1869 14.0208V15.7834L19.2166 14.6083V12.7923C19.2166 12.365 19.003 11.9377 18.5757 11.6706L14.3027 9.16024C13.9288 8.94659 13.4481 8.94659 13.0208 9.16024L8.64095 11.724C8.21365 11.9377 8 12.365 8 12.7923V17.8131C8 18.2404 8.21365 18.6677 8.64095 18.9347L12.9674 21.4451C13.3412 21.6588 13.822 21.6588 14.2493 21.4451L17.1869 19.7359L19.2166 18.5608L22.1543 16.8516C22.5282 16.638 23.0089 16.638 23.4362 16.8516L25.7329 18.1869C26.1068 18.4006 26.3739 18.8279 26.3739 19.3086V21.9792C26.3739 22.4065 26.1602 22.8338 25.7329 23.1009L23.4896 24.4362C23.1157 24.6499 22.635 24.6499 22.2077 24.4362L19.911 23.1009C19.5371 22.8872 19.27 22.4599 19.27 21.9792V20.27L17.2404 21.4451V23.2077C17.2404 23.635 17.454 24.0623 17.8813 24.3294L22.2077 26.8398C22.5816 27.0534 23.0623 27.0534 23.4896 26.8398L27.816 24.3294C28.1899 24.1157 28.457 23.6884 28.457 23.2077V18.1335C28.457 17.7062 28.2433 17.2789 27.816 17.0119L23.4896 14.5015Z" fill="#7249E5"/>
</svg>
