<?xml version="1.0" encoding="utf-8"?>
<!-- Generator: Adobe Illustrator 17.0.0, SVG Export Plug-In . SVG Version: 6.00 Build 0)  -->
<!DOCTYPE svg PUBLIC "-//W3C//DTD SVG 1.1//EN" "http://www.w3.org/Graphics/SVG/1.1/DTD/svg11.dtd">
<svg version="1.1" id="Layer_1" xmlns="http://www.w3.org/2000/svg" xmlns:xlink="http://www.w3.org/1999/xlink" x="0px" y="0px"
	 width="152px" height="90px" viewBox="-56 -27 152 90" enable-background="new -56 -27 152 90" xml:space="preserve">
<g id="Background" display="none">
</g>
<g id="Logos">
	<g>
		<g>
			<path fill="#1E1E1E" d="M-48.355,34.65h5.353l4.243,11.178l4.494-11.178h5.408l3.162,20.915h-5.437l-1.526-12.039h-0.055
				l-5.021,12.039h-2.162l-4.798-12.039h-0.055l-1.748,12.039h-5.408L-48.355,34.65z"/>
			<path fill="#1E1E1E" d="M-18.768,55.563h-5.049v-14.23h5.049V55.563z"/>
			<path fill="#1E1E1E" d="M-11.085,43.165h0.055c1.165-1.72,2.581-2.301,4.55-2.301c3.827,0,5.353,2.413,5.353,5.908v8.793h-5.049
				v-6.934c0-1.359,0.222-3.746-2.275-3.746c-2.052,0-2.636,1.526-2.636,3.301v7.379h-5.049V41.333h5.049v1.832H-11.085z"/>
			<path fill="#1E1E1E" d="M6.563,43.165h0.055c1.165-1.72,2.581-2.301,4.55-2.301c3.827,0,5.353,2.413,5.353,5.908v8.793h-5.049
				v-6.934c0-1.359,0.222-3.746-2.275-3.746c-2.052,0-2.636,1.526-2.636,3.301v7.379H1.511V41.333h5.049v1.832H6.563z"/>
			<path fill="#1E1E1E" d="M34.816,55.563h-5.049v-1.581h-0.055c-0.887,1.414-2.636,2.052-4.298,2.052
				c-4.217,0-7.185-3.523-7.185-7.599c0-4.078,2.913-7.573,7.128-7.573c1.636,0,3.356,0.61,4.411,1.859v-1.387h5.049V55.563z
				 M23.444,48.464c0,1.804,1.194,3.191,3.246,3.191s3.246-1.387,3.246-3.191c0-1.748-1.194-3.217-3.246-3.217
				C24.635,45.244,23.444,46.715,23.444,48.464z"/>
			<path fill="#1E1E1E" d="M42.466,42.943h0.055c0.916-1.414,2.636-2.081,4.298-2.081c4.243,0,7.185,3.55,7.185,7.628
				c0,4.105-2.913,7.544-7.128,7.544c-1.636,0-3.33-0.584-4.411-1.83v8.46h-5.047V41.333h5.047V42.943z M42.301,48.464
				c0,1.804,1.194,3.191,3.246,3.191c2.052,0,3.246-1.387,3.246-3.191c0-1.748-1.194-3.217-3.246-3.217
				C43.492,45.244,42.301,46.715,42.301,48.464z"/>
			<path fill="#1E1E1E" d="M86.857,53.982h-0.055c-0.887,1.414-2.636,2.052-4.298,2.052c-4.217,0-7.185-3.523-7.185-7.599
				c0-4.078,2.913-7.573,7.128-7.573c1.636,0,3.356,0.61,4.411,1.859V32.54h5.047v23.023h-5.047V53.982z M80.533,48.464
				c0,1.804,1.194,3.191,3.246,3.191c2.052,0,3.246-1.387,3.246-3.191c0-1.748-1.194-3.217-3.246-3.217
				C81.727,45.244,80.533,46.715,80.533,48.464z"/>
			<polygon fill="#FFCE00" points="64.812,50.659 60.029,55.44 55.742,51.15 64.812,42.08 73.887,51.152 69.595,55.442 			"/>
			<circle fill="#1E1E1E" cx="-21.291" cy="37.477" r="2.83"/>
		</g>
		<g>
			<polygon fill="#FFCE00" points="20.013,22.182 13.491,28.702 7.642,22.851 20.013,10.482 32.385,22.856 26.534,28.702 			"/>
			<path fill="#0068FF" d="M43.443,9.918c-0.048-0.471-0.165-0.934-0.372-1.361c-0.211-0.44-0.506-0.859-0.89-1.242L32.647-2.22
				v-7.747c0-2.572-1.022-5.038-2.843-6.855l-9.861-9.843l-9.828,9.843c-1.812,1.817-2.83,4.276-2.83,6.842v7.853l-9.44,9.44
				c-0.766,0.766-1.176,1.68-1.29,2.603l0,0l0,0v22.468l5.069-16.11L15.459,2.348V-8.434l4.483-4.505l4.53,4.505v10.7l13.93,14.01
				l5.041,16.11V9.918z"/>
		</g>
		<g>
			<polygon fill="#FFCE00" points="19.998,22.182 13.477,28.702 7.629,22.851 19.998,10.482 32.371,22.856 26.52,28.702 			"/>
			<path fill="#0068FF" d="M42.098,7.315l-9.44-9.44v-7.853c0-2.565-1.017-5.027-2.83-6.842L20-26.663l-9.828,9.843
				c-1.812,1.817-2.83,4.276-2.83,6.842v7.853l-9.44,9.44c-0.766,0.766-1.176,1.68-1.29,2.603l0,0v22.468l5.069-16.11L15.517,2.35
				V-8.434L20-12.939l0,0l4.483,4.505V2.352l13.836,13.926l5.069,16.11V9.918l0,0C43.274,8.996,42.864,8.082,42.098,7.315z"/>
		</g>
	</g>
</g>
</svg>
