<?xml version="1.0" encoding="utf-8"?>
<!-- Generator: Adobe Illustrator 17.0.0, SVG Export Plug-In . SVG Version: 6.00 Build 0)  -->
<!DOCTYPE svg PUBLIC "-//W3C//DTD SVG 1.1//EN" "http://www.w3.org/Graphics/SVG/1.1/DTD/svg11.dtd">
<svg version="1.1" id="Layer_1" xmlns="http://www.w3.org/2000/svg" xmlns:xlink="http://www.w3.org/1999/xlink" x="0px" y="0px"
	 width="60px" height="60px" viewBox="-22 -22 60 60" enable-background="new -22 -22 60 60" xml:space="preserve">
<g id="Background" display="none">
</g>
<g id="Logos">
	<g>
		<g>
			<polygon fill="#FFCE00" points="7.998,27.3 1.483,33.817 -4.361,27.971 7.998,15.613 20.361,27.975 14.515,33.817 			"/>
			<path fill="#0068FF" d="M30.079,12.449l-9.432-9.432v-7.846c0-2.563-1.016-5.023-2.827-6.836L8-21.5l-9.819,9.835
				C-3.63-9.85-4.647-7.392-4.647-4.829v7.846l-9.432,9.432c-0.766,0.766-1.175,1.679-1.289,2.601l0,0v22.448l5.065-16.097
				L3.52,7.487V-3.287L8-7.788l0,0l4.48,4.502V7.49l13.824,13.914L31.368,37.5V15.049l0,0
				C31.254,14.125,30.844,13.214,30.079,12.449z"/>
		</g>
	</g>
</g>
</svg>
