<?xml version="1.0" encoding="utf-8"?>
<!-- Generator: Adobe Illustrator 17.0.0, SVG Export Plug-In . SVG Version: 6.00 Build 0)  -->
<!DOCTYPE svg PUBLIC "-//W3C//DTD SVG 1.1//EN" "http://www.w3.org/Graphics/SVG/1.1/DTD/svg11.dtd">
<svg version="1.1" id="Layer_1" xmlns="http://www.w3.org/2000/svg" xmlns:xlink="http://www.w3.org/1999/xlink" x="0px" y="0px"
	 width="162px" height="100px" viewBox="-61 -32 162 100" enable-background="new -61 -32 162 100" xml:space="preserve">
<g id="Logos">
	<g>
		<g>
			<path fill="#1E1E1E" d="M-10.881,14.108h4.172l3.307,8.711l3.503-8.711h4.215l2.464,16.3H2.543l-1.189-9.382H1.311l-3.913,9.382
				h-1.685l-3.739-9.382H-8.07l-1.363,9.382h-4.215L-10.881,14.108z"/>
			<path fill="#1E1E1E" d="M12.177,30.408H8.242v-11.09h3.935V30.408z"/>
			<path fill="#1E1E1E" d="M18.165,20.744h0.043c0.908-1.34,2.011-1.793,3.545-1.793c2.983,0,4.172,1.881,4.172,4.604v6.852h-3.933
				v-5.404c0-1.059,0.173-2.919-1.773-2.919c-1.599,0-2.054,1.189-2.054,2.572v5.751H14.23v-11.09h3.935
				C18.165,19.318,18.165,20.744,18.165,20.744z"/>
			<path fill="#1E1E1E" d="M31.918,20.744h0.043c0.908-1.34,2.011-1.793,3.545-1.793c2.983,0,4.172,1.881,4.172,4.604v6.852h-3.935
				v-5.404c0-1.059,0.173-2.919-1.773-2.919c-1.599,0-2.054,1.189-2.054,2.572v5.751h-3.935v-11.09h3.935v1.426H31.918z"/>
			<path fill="#1E1E1E" d="M53.935,30.408H50v-1.232h-0.043c-0.692,1.102-2.054,1.599-3.35,1.599c-3.286,0-5.6-2.746-5.6-5.922
				c0-3.178,2.27-5.902,5.555-5.902c1.275,0,2.615,0.475,3.437,1.448v-1.081h3.935V30.408z M45.073,24.873
				c0,1.406,0.93,2.487,2.53,2.487s2.53-1.081,2.53-2.487c0-1.363-0.93-2.507-2.53-2.507C46.002,22.366,45.073,23.51,45.073,24.873z
				"/>
			<path fill="#1E1E1E" d="M59.897,20.571h0.043c0.714-1.102,2.054-1.622,3.35-1.622c3.307,0,5.6,2.766,5.6,5.945
				c0,3.199-2.27,5.879-5.555,5.879c-1.275,0-2.595-0.455-3.437-1.426v6.593h-3.933V19.316h3.933V20.571z M59.768,24.873
				c0,1.406,0.93,2.487,2.53,2.487c1.599,0,2.53-1.081,2.53-2.487c0-1.363-0.93-2.507-2.53-2.507
				C60.697,22.366,59.768,23.51,59.768,24.873z"/>
			<path fill="#1E1E1E" d="M94.492,29.175H94.45c-0.692,1.102-2.054,1.599-3.35,1.599c-3.286,0-5.6-2.746-5.6-5.922
				c0-3.178,2.27-5.902,5.555-5.902c1.275,0,2.615,0.475,3.437,1.448v-7.934h3.933v17.942h-3.933V29.175z M89.564,24.873
				c0,1.406,0.93,2.487,2.53,2.487c1.599,0,2.53-1.081,2.53-2.487c0-1.363-0.93-2.507-2.53-2.507
				C90.494,22.366,89.564,23.51,89.564,24.873z"/>
			<polygon fill="#FFCE00" points="77.312,26.584 73.585,30.311 70.244,26.968 77.312,19.898 84.384,26.97 81.04,30.311 			"/>
			<circle fill="#1E1E1E" cx="10.21" cy="16.313" r="2.205"/>
		</g>
		<g>
			<polygon fill="#FFCE00" points="-40.201,33.054 -45.282,38.137 -49.84,33.577 -40.201,23.938 -30.558,33.581 -35.117,38.137 			
				"/>
			<path fill="#0068FF" d="M-22.978,21.47l-7.357-7.357v-6.12c0-1.999-0.793-3.918-2.205-5.332l-7.659-7.671l-7.659,7.671
				c-1.412,1.416-2.205,3.333-2.205,5.332v6.12l-7.357,7.357c-0.597,0.597-0.916,1.309-1.006,2.028l0,0v17.51l3.951-12.555
				L-43.693,17.6V9.196l3.494-3.511l0,0l3.494,3.511v8.406l10.782,10.853l3.951,12.555V23.498l0,0
				C-22.061,22.778-22.38,22.067-22.978,21.47z"/>
		</g>
	</g>
</g>
</svg>
