<svg width="39" height="36" viewBox="0 0 39 36" fill="none" xmlns="http://www.w3.org/2000/svg">
<g clip-path="url(#clip0_2488_877)">
<path d="M37.51 0L21.033 12.1918L24.097 5.00685L37.51 0Z" fill="#E17726"/>
<path d="M0.928624 0.0141602L14.3058 5.00751L17.2152 12.2867L0.928624 0.0141602ZM30.879 25.9285L38.1616 26.0671L35.6164 34.7134L26.73 32.2667L30.879 25.9285ZM7.52082 25.9285L11.6544 32.2667L2.78292 34.7135L0.253174 26.0671L7.52082 25.9285Z" fill="#E27625"/>
<path d="M16.8197 10.4329L17.1173 20.0454L8.21167 19.6402L10.7449 15.8185L10.777 15.7818L16.8197 10.4329ZM21.4882 10.3257L27.6232 15.7821L27.655 15.8187L30.1882 19.6404L21.2845 20.0454L21.4882 10.3257ZM11.9153 25.9567L16.778 29.7456L11.1293 32.4727L11.9153 25.9567ZM26.4857 25.9561L27.2554 32.4729L21.6224 29.7453L26.4857 25.9561Z" fill="#E27625"/>
<path d="M21.7467 29.3882L27.4627 32.156L22.1457 34.6829L22.2009 33.0128L21.7467 29.3882ZM16.6516 29.3894L16.2153 32.9855L16.2511 34.6809L10.9216 32.156L16.6516 29.3894Z" fill="#D5BFB2"/>
<path d="M15.0009 21.2998L16.4946 24.439L11.4092 22.9492L15.0009 21.2998ZM23.3987 21.3001L27.0074 22.9492L21.9053 24.4386L23.3987 21.3001Z" fill="#233447"/>
<path d="M12.3039 25.9243L11.4819 32.6803L7.07593 26.072L12.3039 25.9243ZM26.0964 25.9244L31.3245 26.072L26.902 32.6806L26.0964 25.9244ZM30.3168 19.2578L26.512 23.1355L23.5785 21.7949L22.174 24.7475L21.2533 19.6702L30.3168 19.2578ZM8.08123 19.2578L17.1465 19.6702L16.2256 24.7475L14.8209 21.7954L11.9029 23.1356L8.08123 19.2578Z" fill="#CC6228"/>
<path d="M7.82495 18.4624L12.1297 22.8305L12.2788 27.1429L7.82495 18.4624ZM30.5795 18.4546L26.1176 27.1505L26.2856 22.8305L30.5795 18.4546ZM16.9361 18.7285L17.1094 19.819L17.5375 22.5356L17.2622 30.8794L15.961 24.1766L15.9605 24.1073L16.9361 18.7285ZM21.4618 18.7133L22.4399 24.1073L22.4395 24.1766L21.1349 30.8962L21.0833 29.2154L20.8798 22.4861L21.4618 18.7133Z" fill="#E27525"/>
<path d="M26.6682 22.6567L26.5226 26.4034L21.9815 29.9415L21.0635 29.2929L22.0925 23.9926L26.6682 22.6567ZM11.7476 22.6567L16.3074 23.9926L17.3364 29.2929L16.4184 29.9415L11.8772 26.4031L11.7476 22.6567Z" fill="#F5841F"/>
<path d="M10.0527 31.3286L15.8625 34.0814L15.8379 32.9059L16.3241 32.4791H22.0742L22.5779 32.9044L22.5407 34.079L28.3137 31.3355L25.5045 33.6569L22.1078 35.9899H16.2774L12.8829 33.6473L10.0527 31.3286Z" fill="#C0AC9D"/>
<path d="M21.3306 29.022L22.152 29.6023L22.6334 33.4429L21.9368 32.8548H16.4654L15.782 33.4548L16.2476 29.6026L17.0693 29.022H21.3306Z" fill="#161616"/>
<path d="M36.4221 0.337402L38.4 6.27095L37.1648 12.2705L38.0444 12.949L36.8541 13.8571L37.7487 14.548L36.5642 15.6266L37.2914 16.1533L35.3615 18.4072L27.446 16.1024L27.3774 16.0657L21.6734 11.254L36.4221 0.337402ZM1.9779 0.337402L16.7268 11.254L11.0226 16.0657L10.9541 16.1024L3.03855 18.4072L1.10865 16.1533L1.83525 15.6271L0.65145 14.548L1.54425 13.8578L0.33615 12.9472L1.2489 12.2683L0 6.27125L1.9779 0.337402Z" fill="#763E1A"/>
<path d="M27.0588 15.5985L35.4457 18.0403L38.1705 26.4382H30.9819L26.0289 26.5006L29.631 19.4794L27.0588 15.5985ZM11.3412 15.5985L8.76853 19.4794L12.3711 26.5006L7.42033 26.4382H0.244629L2.95408 18.0405L11.3412 15.5985ZM24.5076 4.9668L22.1617 11.3026L21.6639 19.8616L21.4734 22.5444L21.4582 29.3976H16.9416L16.9269 22.5573L16.7358 19.8594L16.2378 11.3026L13.8922 4.9668H24.5076Z" fill="#F5841F"/>
</g>
<defs>
<clipPath id="clip0_2488_877">
<rect width="38.4" height="36" fill="white"/>
</clipPath>
</defs>
</svg>
