<svg width="45" height="45" viewBox="0 0 45 45" fill="none" xmlns="http://www.w3.org/2000/svg">
<path d="M22.5 0C34.926 0 45 10.074 45 22.5C45 34.926 34.926 45 22.5 45C10.074 45 0 34.926 0 22.5C0 10.074 10.074 0 22.5 0Z" fill="#D60000"/>
<path d="M24.5 28C23.8 28 23.2083 27.7583 22.725 27.275C22.2417 26.7917 22 26.2 22 25.5C22 24.8 22.2417 24.2083 22.725 23.725C23.2083 23.2417 23.8 23 24.5 23C25.2 23 25.7917 23.2417 26.275 23.725C26.7583 24.2083 27 24.8 27 25.5C27 26.2 26.7583 26.7917 26.275 27.275C25.7917 27.7583 25.2 28 24.5 28ZM15 32C14.45 32 13.9793 31.8043 13.588 31.413C13.1967 31.0217 13.0007 30.5507 13 30V16C13 15.45 13.196 14.9793 13.588 14.588C13.98 14.1967 14.4507 14.0007 15 14H16V12H18V14H26V12H28V14H29C29.55 14 30.021 14.196 30.413 14.588C30.805 14.98 31.0007 15.4507 31 16V30C31 30.55 30.8043 31.021 30.413 31.413C30.0217 31.805 29.5507 32.0007 29 32H15ZM15 30H29V20H15V30Z" fill="white"/>
</svg>
