<?xml version="1.0" encoding="utf-8"?>
<!-- Generator: Adobe Illustrator 17.0.0, SVG Export Plug-In . SVG Version: 6.00 Build 0)  -->
<!DOCTYPE svg PUBLIC "-//W3C//DTD SVG 1.1//EN" "http://www.w3.org/Graphics/SVG/1.1/DTD/svg11.dtd">
<svg version="1.1" id="Layer_1" xmlns="http://www.w3.org/2000/svg" xmlns:xlink="http://www.w3.org/1999/xlink" x="0px" y="0px"
	 width="821px" height="717px" viewBox="0 0 821 717" enable-background="new 0 0 821 717" xml:space="preserve">
<path fill="#ECE1EF" fill-opacity="0.5" d="M745.918,712.796c79.851-51.211,85.067-299.519-69.359-357.638
	C522.131,297.039,550.74,150.38,420.82,40.753C302.393-59.177,106.479,25.528,41.223,285.409
	c-46.531,185.31,7.764,417.767,44.814,427.387C446.32,712.796,745.918,712.796,745.918,712.796z"/>
<path fill="#E5E5E5" d="M820.959,712.796c0-2.272-0.814-4.115-1.818-4.115H2.206c-1.219,0-2.206,1.843-2.206,4.115
	c0,2.273,0.987,4.116,2.206,4.116h816.935C820.145,716.912,820.959,715.069,820.959,712.796z"/>
<path fill="#8282A8" d="M645.267,230.914c45.044-3.298,83.201,16.461,85.228,44.131c1.012,13.835-7.2,27.029-21.296,37.176
	l-13.607,40.244l-5.918-29.684c-10.962,4.395-23.559,7.347-37.072,8.336c-45.044,3.297-83.202-16.462-85.227-44.132
	C565.349,259.315,600.223,234.211,645.267,230.914z"/>
<path fill="#FBF3FF" d="M690.123,276.09H607.4c-3.663,0-6.633-2.969-6.633-6.632s2.97-6.632,6.633-6.632h82.723
	c3.662,0,6.632,2.969,6.632,6.632S693.785,276.09,690.123,276.09z"/>
<path fill="#FBF3FF" d="M679.271,295.213h-61.018c-3.662,0-6.632-2.969-6.632-6.632s2.97-6.632,6.632-6.632h61.018
	c3.663,0,6.632,2.969,6.632,6.632C685.902,292.243,682.934,295.213,679.271,295.213z"/>
<path fill="#0068FF" d="M373.782,349.385c-11.846,2.332-59.18,65.755-59.18,65.755l-1.669,4.39c0,0,85.635-9.522,88.736-13.183
	C410.044,396.464,383.516,347.47,373.782,349.385z M315.202,416.491c15.626-19.972,51.23-49.139,58.925-55.331
	c6.871,7.009,17.22,27.694,18.586,37.041C382.873,400.226,340.188,413.471,315.202,416.491z"/>
<path fill="#0068FF" d="M259.064,360.211c-23.297-15.199-29.692-15.082-36.481-11.231c-6.787,3.85-31.82,39.762-20.632,50.963
	c11.188,11.202,99.932,19.189,99.932,19.189l2.001-5.427C303.884,413.705,282.359,375.406,259.064,360.211z M217.372,395.991
	c-5.174-5.159,7.706-26.661,13.58-31.237c1.497-0.844,61.202,37.148,69.532,50.12C267.162,411.269,222.192,400.274,217.372,395.991z
	"/>
<path fill="#0068FF" d="M302.593,435.963h4.994c4.95,0,8.96-4.01,8.96-8.959v-14.69c0-4.95-4.011-8.96-8.96-8.96h-4.994
	c-4.949,0-8.961,4.01-8.961,8.96v14.69C293.632,431.953,297.644,435.963,302.593,435.963z"/>
<path fill="#BBBBFF" d="M491.898,419.8l-405.972-1.215c-10.803-0.032-19.089,9.582-17.469,20.269l6.282,41.428l20.348-0.042
	l12.264,208.475c0.656,11.156,9.89,19.867,21.06,19.867h324.03L465.92,479.47l19.168-0.039L491.898,419.8z"/>
<path fill="#B3B3E5" d="M459.377,708.581h-248.72l-13.319-284.463h295.505L480.45,688.803
	C479.933,699.87,470.651,708.581,459.377,708.581z"/>
<path fill="#ACACE5" d="M505.047,479.57l-320.798,0.851l-7.322-61.722l314.258,1.204c10.321,0.039,18.397,8.903,17.478,19.183
	L505.047,479.57z"/>
<path fill="#A5A5CE" d="M184.249,480.421l305.973-0.851l-296.269,16.176L184.249,480.421z"/>
<path fill="#0068FF" d="M313.142,419.178h-8.513v60.96h8.513V419.178z"/>
<path fill="#0068FF" d="M338.959,479.854h-10.641v229.153h10.641V479.854z"/>
<path fill="#0068FF" fill-opacity="0.2" d="M83.09,299.623c28.333,10.996,51.669,18.398,74.943,24.583
	c7.675,2.038,20.384,7.847,27.447,2.675c3.672-2.688,5.213-6.732,3.055-11.037c-3.958-7.881-16.184-8.445-23.918-10.506
	c-23.571-6.28-49.947-14.503-76.118-24.361c-4.908-1.848-10.648,1.862-12.028,6.618C74.898,293.007,78.188,297.721,83.09,299.623z"
	/>
<path fill="#0068FF" fill-opacity="0.2" d="M264.469,249.872c-8.361-64.021-7.814-64.187-11.363-70.229
	c-3.638-6.192-13.593-5.345-15.559,1.823c-1.94,7.085-1.497,5.951,7.55,73.282c0.721,5.355,7.313,8.459,12.124,7.248
	C262.966,260.55,265.172,255.245,264.469,249.872z"/>
<path fill="#0068FF" fill-opacity="0.2" d="M367.409,264.304c6.335-8.548,11.684-17.674,16.059-27.376
	c4.064-9.012,11.511-22.284,4.53-31.212c-1.5-1.916-5.029-2.832-7.294-2.051c-9.467,3.267-11.274,10.33-15.056,18.629
	c-4.13,9.053-9.23,23.879-14.83,32.091c-2.944,4.314-0.958,10.69,3.336,13.256C359.003,270.542,364.291,268.512,367.409,264.304z"/>
<path fill="#0068FF" fill-opacity="0.2" d="M509.916,312.964c2.867-3.932,0.459-9.03-2.906-11.543
	c-23.146-17.268-2.942-4.872-26.719,1.685c-8.808,2.428-17.303,5.712-25.601,9.518c-4.788,2.197-6.108,8.988-3.674,13.288
	c2.85,5.037,8.409,5.706,13.286,3.674C496.159,316.321,502.842,322.669,509.916,312.964z"/>
</svg>
