<svg width="100" height="101" viewBox="0 0 100 101" fill="none" xmlns="http://www.w3.org/2000/svg">
<g id="Group 1171276135">
<g id="Group 1171276133">
<path id="Vector" d="M91.0333 21.493C90.51 20.818 89.7476 20.3696 88.9034 20.2403C88.0592 20.111 87.1975 20.3107 86.4962 20.7982C85.7949 21.2856 85.3075 22.0237 85.1345 22.8601C84.9616 23.6964 85.1162 24.5673 85.5666 25.293C89.4516 30.8749 91.9683 37.2928 92.9131 44.0277C93.8578 50.7625 93.2042 57.6252 91.0049 64.0606C88.8057 70.496 85.1226 76.3234 80.2537 81.0715C75.3847 85.8196 69.4666 89.355 62.9779 91.3918C56.4893 93.4286 49.6123 93.9095 42.9033 92.7958C36.1943 91.682 29.8417 89.0048 24.3592 84.9807C18.8767 80.9566 14.4184 75.6986 11.3448 69.6319C8.27114 63.5653 6.66857 56.8604 6.66668 50.0596C6.70868 40.7354 9.73884 31.6702 15.3123 24.1949C20.8858 16.7196 28.7089 11.228 37.6333 8.52631C38.0535 8.40156 38.4451 8.19525 38.7856 7.91918C39.1261 7.64311 39.4089 7.30267 39.6178 6.91731C39.8267 6.53194 39.9577 6.1092 40.0033 5.67322C40.0488 5.23723 40.0081 4.79655 39.8833 4.37632C39.7586 3.95609 39.5522 3.56455 39.2762 3.22405C39.0001 2.88355 38.6597 2.60076 38.2743 2.39183C37.8889 2.18289 37.4662 2.05191 37.0302 2.00636C36.5942 1.9608 36.1535 2.00156 35.7333 2.12632C26.8455 4.77229 18.8687 9.83781 12.6944 16.7567C6.52006 23.6756 2.39151 32.1753 0.770171 41.3057C-0.851165 50.4361 0.0985999 59.8376 3.51331 68.4593C6.92803 77.0809 12.6731 84.5831 20.1065 90.1273C27.5399 95.6715 36.3687 99.0393 45.6061 99.8542C54.8435 100.669 64.1255 98.8991 72.4148 94.7419C80.704 90.5847 87.6738 84.2042 92.5452 76.3135C97.4167 68.4228 99.9977 59.3329 99.9999 50.0596C100.019 39.8421 96.8875 29.8671 91.0333 21.493Z" fill="#078805"/>
<path id="Vector_2" d="M62.3681 8.52624C67.5647 10.103 72.4165 12.6477 76.6681 16.0262C77.0117 16.2976 77.4055 16.4987 77.8268 16.6179C78.2481 16.7372 78.6888 16.7723 79.1237 16.7212C79.5586 16.6701 79.9791 16.5339 80.3614 16.3203C80.7436 16.1067 81.08 15.8199 81.3514 15.4762C81.6228 15.1326 81.8239 14.7389 81.9431 14.3176C82.0624 13.8962 82.0975 13.4555 82.0464 13.0207C81.9953 12.5858 81.8591 12.1652 81.6455 11.783C81.4319 11.4007 81.1451 11.0643 80.8014 10.7929C75.8478 6.87012 70.1911 3.92863 64.1348 2.12624C63.2861 1.87429 62.3721 1.96979 61.5938 2.39175C60.8155 2.81371 60.2368 3.52755 59.9848 4.37624C59.7328 5.22493 59.8283 6.13896 60.2503 6.91723C60.6723 7.69551 61.3861 8.27428 62.2348 8.52624H62.3681ZM47.6348 5.75957C47.9588 6.05401 48.3309 6.29077 48.7348 6.45957C49.1338 6.63592 49.5652 6.72702 50.0015 6.72702C50.4377 6.72702 50.8691 6.63592 51.2681 6.45957C51.6718 6.29019 52.0437 6.05349 52.3681 5.75957C52.6771 5.44811 52.9215 5.07872 53.0874 4.6726C53.2533 4.26647 53.3373 3.8316 53.3348 3.39291C53.3225 2.51035 52.9772 1.66502 52.3681 1.02625C51.9833 0.624901 51.5041 0.32621 50.9743 0.157373C50.4445 -0.0114641 49.8809 -0.0450823 49.3348 0.0595796C49.1261 0.09654 48.924 0.163924 48.7348 0.259579C48.5221 0.33179 48.3202 0.432723 48.1348 0.559579L47.6348 0.959579C47.3313 1.27659 47.0935 1.65041 46.9348 2.05958C46.7553 2.48098 46.6645 2.93486 46.6681 3.39291C46.6734 3.8285 46.764 4.25884 46.9348 4.65958C47.1042 5.06322 47.3409 5.43518 47.6348 5.75957ZM20.6348 45.4595C20.2781 45.8129 19.9949 46.2334 19.8016 46.6968C19.6083 47.1603 19.5088 47.6574 19.5088 48.1595C19.5088 48.6617 19.6083 49.1588 19.8016 49.6222C19.9949 50.0857 20.2781 50.5062 20.6348 50.8595L39.7015 70.0595C40.0548 70.4163 40.4753 70.6995 40.9388 70.8928C41.4022 71.0861 41.8994 71.1856 42.4015 71.1856C42.9036 71.1856 43.4007 71.0861 43.8642 70.8928C44.3276 70.6995 44.7481 70.4163 45.1015 70.0595L79.3681 35.6262C80.1063 34.9101 80.5298 33.9301 80.5454 32.9018C80.561 31.8735 80.1675 30.8811 79.4514 30.1429C78.7354 29.4047 77.7554 28.9812 76.727 28.9656C75.6987 28.95 74.7063 29.3435 73.9681 30.0596L42.3682 61.6595L26.0348 45.4595C25.3168 44.7471 24.3463 44.3473 23.3348 44.3473C22.3233 44.3473 21.3529 44.7471 20.6348 45.4595Z" fill="#078805"/>
</g>
</g>
</svg>
