<svg xmlns="http://www.w3.org/2000/svg" width="27" height="23" viewBox="0 0 27 23" fill="none"><path fill-rule="evenodd" clip-rule="evenodd" d="M23.8326 0.561642C24.1459 0.42578 24.4888 0.378922 24.8256 0.425945C25.1625 0.472968 25.4809 0.612152 25.7479 0.829011C26.0148 1.04587 26.2204 1.33248 26.3433 1.659C26.4663 1.98552 26.502 2.34002 26.4468 2.6856L23.5714 20.6557C23.2925 22.389 21.4465 23.3831 19.9036 22.5197C18.6129 21.7973 16.696 20.6844 14.9717 19.5231C14.1096 18.9419 11.4687 17.0805 11.7933 15.7559C12.0722 14.6234 16.5096 10.3676 19.0452 7.83744C20.0405 6.84339 19.5866 6.26995 18.4113 7.18432C15.4915 9.45458 10.8069 12.907 9.2576 13.8788C7.89089 14.7357 7.17836 14.882 6.32638 14.7357C4.77203 14.4693 3.3305 14.0565 2.15396 13.5536C0.564102 12.8743 0.641439 10.6224 2.15269 9.96663L23.8326 0.561642Z" fill="#1E1E1E"></path></svg>