<svg width="32" height="32" viewBox="0 0 32 32" fill="none" xmlns="http://www.w3.org/2000/svg">
<path fill-rule="evenodd" clip-rule="evenodd" d="M31.8057 15.9028C31.8057 24.6852 24.6852 31.8057 15.9028 31.8057C7.12049 31.8057 0 24.6852 0 15.9028C0 7.12049 7.12049 0 15.9028 0C24.6852 0 31.8057 7.12049 31.8057 15.9028ZM16.4727 11.7403C14.9261 12.383 11.8344 13.7149 7.19868 15.7345C6.44595 16.034 6.05103 16.3269 6.01524 16.6132C5.95428 17.0982 6.56124 17.289 7.38554 17.5474C7.49818 17.5832 7.6148 17.619 7.73408 17.6588C8.54644 17.9225 9.63844 18.2313 10.2056 18.2432C10.7212 18.2538 11.2963 18.0418 11.9311 17.6071C16.262 14.6823 18.4976 13.2046 18.6381 13.1728C18.7375 13.1503 18.8753 13.1212 18.9681 13.2046C19.0609 13.2868 19.0516 13.4432 19.0423 13.4856C18.9814 13.7414 16.6039 15.9532 15.3714 17.0982C14.9871 17.4547 14.7154 17.7078 14.6598 17.7661C14.5352 17.8947 14.408 18.0179 14.286 18.1359C13.5307 18.8621 12.9661 19.4081 14.3178 20.2986C14.9672 20.7267 15.4867 21.0805 16.0049 21.433C16.5707 21.8187 17.1353 22.203 17.8668 22.6827C18.0524 22.8047 18.2299 22.9306 18.4035 23.0538C19.0622 23.5243 19.6546 23.9457 20.3861 23.8794C20.8102 23.8397 21.2502 23.4408 21.4728 22.2494C21.9989 19.4319 23.0352 13.3305 23.2751 10.8152C23.2897 10.6064 23.2808 10.3966 23.2486 10.1897C23.2293 10.0227 23.148 9.86894 23.0207 9.75904C22.8312 9.60398 22.537 9.57085 22.4044 9.5735C21.8068 9.5841 20.8897 9.90349 16.4727 11.7403Z" fill="#9FA4B3"/>
</svg>
