<svg width="44" height="41" viewBox="0 0 44 41" fill="none" xmlns="http://www.w3.org/2000/svg">
<path d="M26.9291 7.61421C26.077 6.65601 24.7482 6.10645 23.2834 6.10645C20.6674 6.10645 18.3291 7.89256 18.0706 10.0905C17.9546 11.0958 18.2666 12.0711 18.9489 12.8366C19.7873 13.7773 21.1042 14.3167 22.5624 14.3167C25.2462 14.3167 27.5502 12.5666 27.8077 10.335C27.9237 9.34808 27.6117 8.38189 26.9291 7.61421ZM25.7097 10.0904C25.5776 11.2364 24.1362 12.2045 22.5623 12.2045C21.7185 12.2045 20.9571 11.9155 20.5256 11.4312C20.2414 11.1124 20.1215 10.7428 20.1685 10.3348C20.3011 9.20749 21.7566 8.21852 23.2834 8.21852C24.1329 8.21852 24.9058 8.51733 25.3508 9.01765C25.5463 9.23739 25.7673 9.60151 25.7097 10.0904Z" fill="#078805"/>
<path d="M25.9311 30.136C25.6671 29.9589 25.0492 29.5445 25.548 26.6674C25.5608 26.6046 25.6109 26.3727 25.6887 26.0123C25.8658 25.191 26.1954 23.6624 26.5537 21.9578C26.5546 21.9541 26.5554 21.9501 26.5561 21.9463C26.9219 20.1041 26.6323 18.4925 25.7193 17.2857C24.8951 16.1962 23.5902 15.5283 22.0452 15.4052C19.7605 15.2224 17.3704 16.5859 16.6382 17.9281C16.2997 18.5228 16.4618 19.0057 16.5894 19.242C16.7475 19.5342 16.9782 19.698 17.1467 19.8175C17.4063 20.0017 18.014 20.4331 17.4369 23.3042C17.3829 23.5668 16.5776 27.6613 16.4711 28.2426C16.4704 28.2465 16.4698 28.2504 16.469 28.2543C16.1517 30.1054 16.4655 31.7231 17.4274 32.8914C18.9763 34.7725 21.3339 34.6822 21.4262 34.6822C23.6235 34.6821 25.82 33.3174 26.4887 32.0114C26.8116 31.408 26.6372 30.9295 26.5031 30.6967C26.3377 30.4088 26.1026 30.2511 25.9311 30.136ZM24.4851 21.5297C24.1286 23.2263 23.8003 24.7486 23.6238 25.5669C23.5037 26.1233 23.4795 26.2363 23.4709 26.2826C23.4703 26.2863 23.4695 26.2901 23.4689 26.294C22.9327 29.376 23.4754 30.7249 24.2435 31.4795C24.0336 31.6668 23.7461 31.869 23.3903 32.0525C22.6904 32.4136 21.9152 32.6004 21.2623 32.5659C20.3112 32.5151 19.5558 32.172 19.0779 31.5734C18.5215 30.8767 18.3389 29.8544 18.5498 28.6173C18.6646 27.9917 19.471 23.8962 19.5049 23.7333C19.5055 23.7297 19.5063 23.7263 19.507 23.7226C20.1239 20.6557 19.6165 19.2931 18.8685 18.5186C19.0832 18.337 19.376 18.1423 19.7365 17.9682C20.4456 17.6257 21.2259 17.4591 21.8773 17.5108C22.8267 17.5865 23.5727 17.9493 24.0348 18.5601C24.5729 19.2713 24.7287 20.2981 24.4851 21.5297Z" fill="#078805"/>
<path d="M39.4979 32.326C42.4053 28.8372 44 24.5274 44 20.1261C44 14.7313 41.6988 9.66518 37.5206 5.86066C33.3699 2.0814 27.858 0 22.0001 0C16.1422 0 10.6301 2.0814 6.4794 5.86074C2.30105 9.6651 0 14.7314 0 20.1261C0 25.5208 2.30105 30.5872 6.47932 34.3915C10.63 38.1709 16.1419 40.2522 21.9998 40.2522C25.6629 40.2522 29.273 39.416 32.4729 37.8299L40.1402 40.7012C40.2607 40.7463 40.386 40.7682 40.5103 40.7682C40.7715 40.7682 41.0284 40.6714 41.227 40.4882C41.5199 40.2177 41.6356 39.8053 41.526 39.422L39.4979 32.326ZM32.7786 35.689C32.4977 35.5837 32.1853 35.6031 31.9191 35.742C28.9165 37.3108 25.4865 38.1401 21.9999 38.1401C11.0338 38.1401 2.11216 30.0592 2.11216 20.1262C2.11216 10.1933 11.0337 2.11208 21.9998 2.11208C32.9659 2.11208 41.8877 10.1931 41.8877 20.126C41.8877 24.2591 40.3825 28.1473 37.5348 31.3705C37.2962 31.6404 37.2117 32.0136 37.3108 32.3599L38.9196 37.9886L32.7786 35.689Z" fill="#078805"/>
</svg>
