<svg xmlns="http://www.w3.org/2000/svg" width="22" height="24" viewBox="0 0 22 24" fill="none"><path d="M17.2974 3.68362C16.3519 2.66425 15.8309 1.35514 15.8313 0H11.5576V16.1975C11.5246 17.074 11.1328 17.9042 10.4646 18.5134C9.79644 19.1225 8.90406 19.463 7.97539 19.4631C6.01141 19.4631 4.37937 17.9479 4.37937 16.0669C4.37937 13.8201 6.67529 12.135 9.04037 12.8274V8.69961C4.26872 8.09874 0.0917969 11.5995 0.0917969 16.0669C0.0917969 20.4167 3.90912 23.5125 7.96156 23.5125C12.3045 23.5125 15.8313 20.1815 15.8313 16.0669V7.85055C17.5643 9.02598 19.645 9.65663 21.7786 9.65317V5.61687C21.7786 5.61687 19.1784 5.73443 17.2974 3.68362Z" fill="#1E1E1E"></path></svg>