<svg width="45" height="45" viewBox="0 0 45 45" fill="none" xmlns="http://www.w3.org/2000/svg">
<path d="M22.5 0C34.926 0 45 10.074 45 22.5C45 34.926 34.926 45 22.5 45C10.074 45 0 34.926 0 22.5C0 10.074 10.074 0 22.5 0Z" fill="#D60000"/>
<path d="M18.109 16.4934C18.1649 16.6295 18.298 16.7128 18.4371 16.7128C18.4828 16.7128 18.5285 16.7037 18.5732 16.6854C18.7541 16.6102 18.8404 16.4019 18.7652 16.2211L16.9519 11.8448C16.8768 11.663 16.6675 11.5787 16.4877 11.6528C16.3069 11.727 16.2205 11.9352 16.2957 12.1171L18.109 16.4934Z" fill="white"/>
<path d="M14.7046 19.6285C14.795 19.6285 14.8864 19.5939 14.9565 19.5238C15.0957 19.3847 15.0957 19.1602 14.9565 19.021L11.6072 15.6727C11.4681 15.5336 11.2436 15.5336 11.1044 15.6727C10.9652 15.8119 10.9652 16.0364 11.1044 16.1756L14.4536 19.5248C14.5227 19.5939 14.6141 19.6285 14.7046 19.6285Z" fill="white"/>
<path d="M23.0001 15.448C23.1961 15.448 23.3556 15.2885 23.3556 15.0925V10.3555C23.3556 10.1595 23.1972 10 23.0001 10C22.803 10 22.6445 10.1595 22.6445 10.3555V15.0925C22.6445 15.2885 22.804 15.448 23.0001 15.448Z" fill="white"/>
<path d="M27.4281 16.6844C27.4728 16.7026 27.5185 16.7118 27.5643 16.7118C27.7034 16.7118 27.8365 16.6285 27.8924 16.4924L29.7047 12.1171C29.7798 11.9363 29.6935 11.728 29.5127 11.6528C29.3308 11.5787 29.1236 11.663 29.0484 11.8448L27.2361 16.2201C27.161 16.4009 27.2473 16.6092 27.4281 16.6844Z" fill="white"/>
<path d="M34.8954 15.6727C34.7562 15.5336 34.5328 15.5336 34.3936 15.6727L31.0443 19.022C30.9051 19.1612 30.9051 19.3857 31.0443 19.5248C31.1134 19.5939 31.2038 19.6295 31.2952 19.6295C31.3867 19.6295 31.4771 19.5949 31.5462 19.5248L34.8954 16.1756C35.0346 16.0364 35.0346 15.8109 34.8954 15.6727Z" fill="white"/>
<path d="M32.3174 23.1886V23.1866C32.3174 23.1114 32.289 23.0454 32.2494 22.9885C32.2453 22.9824 32.2473 22.9743 32.2423 22.9682L29.1673 19.0541C29.1602 19.045 29.15 19.0419 29.1419 19.0338C29.1185 19.0094 29.0962 18.984 29.0647 18.9657C29.0606 18.9637 29.0566 18.9637 29.0525 18.9617C29.0362 18.9535 29.019 18.9505 29.0007 18.9444C28.9692 18.9342 28.9397 18.9241 28.9072 18.923C28.9001 18.923 28.894 18.918 28.8869 18.918H22.9858H22.9848H17.1122C17.1051 18.918 17.099 18.922 17.0919 18.923C17.0604 18.923 17.0309 18.9322 17.0004 18.9423C16.9821 18.9484 16.9639 18.9515 16.9476 18.9606C16.9435 18.9627 16.9385 18.9627 16.9344 18.9647C16.9029 18.983 16.8795 19.0084 16.8562 19.0338C16.8491 19.0419 16.8389 19.045 16.8328 19.0531L13.7578 22.9672C13.7528 22.9732 13.7548 22.9814 13.7507 22.9865C13.7101 23.0444 13.6816 23.1104 13.6816 23.1856L13.6827 23.1886C13.6827 23.1917 13.6837 23.1937 13.6837 23.1957C13.6857 23.2709 13.7152 23.3369 13.7568 23.3938C13.7609 23.3989 13.7588 23.407 13.7639 23.4121L15.5559 25.5637L13.9529 26.2941C13.77 26.3753 13.6989 26.5887 13.7802 26.7614C13.831 26.8934 13.963 26.9747 14.0951 26.9747C14.1459 26.9747 14.1967 26.9645 14.2475 26.9442L16.0303 26.1336L16.3401 26.5064L14.5624 27.3109C14.3795 27.3922 14.2983 27.6055 14.3795 27.7782C14.4405 27.9103 14.5725 27.9916 14.7046 27.9916C14.7554 27.9916 14.8062 27.9814 14.8468 27.9611L16.8094 27.0702L17.1173 27.4389L15.1628 28.3268C14.9799 28.4081 14.9088 28.6214 14.9901 28.8042C15.0408 28.9363 15.1729 29.0074 15.305 29.0074C15.3558 29.0074 15.4066 28.9972 15.4573 28.9769L17.5927 28.0088L22.7278 34.1761C22.741 34.1923 22.7603 34.1994 22.7755 34.2126C22.7898 34.2248 22.8009 34.235 22.8172 34.2451C22.8731 34.2797 22.934 34.3041 23.0011 34.3041C23.0681 34.3041 23.1291 34.2797 23.1849 34.2451C23.2012 34.235 23.2134 34.2248 23.2276 34.2116C23.2428 34.1984 23.2611 34.1913 23.2743 34.1761L32.2372 23.4121C32.2413 23.407 32.2402 23.3999 32.2443 23.3938C32.2859 23.3379 32.3144 23.2719 32.3174 23.1978C32.3154 23.1957 32.3174 23.1927 32.3174 23.1886ZM17.0665 19.9054L18.7528 22.831H14.7676L17.0665 19.9054ZM26.136 23.5411L23 32.8382L19.8631 23.5421H26.136V23.5411ZM20.1831 22.831L23 19.7957L25.817 22.831H20.1831ZM17.7928 24.5488C17.9756 24.4777 18.1788 24.5488 18.2601 24.7317C18.3414 24.9044 18.2702 25.1177 18.0874 25.199L16.7018 25.8298L16.2274 25.2599L17.7928 24.5488ZM18.3921 25.5748C18.575 25.4936 18.7883 25.5647 18.8696 25.7475C18.9509 25.9304 18.8696 26.1336 18.6867 26.2148L17.4799 26.7654L17.0116 26.2026L18.3921 25.5748ZM19.0017 26.5907C19.1845 26.5094 19.3877 26.5907 19.4689 26.7634C19.5502 26.9462 19.4689 27.1596 19.2963 27.2408L18.2631 27.7061L17.7887 27.1362L19.0017 26.5907ZM27.2473 22.831L28.9336 19.9064L31.2325 22.831H27.2473Z" fill="white"/>
<path d="M30.7235 27.8911C29.9525 27.8911 29.3257 28.5179 29.3257 29.2899C29.3257 30.061 29.9525 30.6878 30.7235 30.6878C31.4955 30.6878 32.1223 30.061 32.1223 29.2899C32.1213 28.5189 31.4945 27.8911 30.7235 27.8911ZM30.7235 29.9777C30.3446 29.9777 30.0358 29.6689 30.0358 29.2899C30.0358 28.911 30.3446 28.6012 30.7235 28.6012C31.1024 28.6012 31.4122 28.911 31.4122 29.2899C31.4122 29.6689 31.1024 29.9777 30.7235 29.9777Z" fill="white"/>
<path d="M29.1438 31.3076C28.5485 31.3076 28.0649 31.7922 28.0649 32.3865C28.0649 32.9807 28.5495 33.4653 29.1438 33.4653C29.738 33.4653 30.2226 32.9807 30.2226 32.3865C30.2226 31.7922 29.7391 31.3076 29.1438 31.3076ZM29.1438 32.7562C28.9406 32.7562 28.775 32.5906 28.775 32.3875C28.775 32.1843 28.9406 32.0187 29.1438 32.0187C29.3469 32.0187 29.5125 32.1843 29.5125 32.3875C29.5125 32.5906 29.3469 32.7562 29.1438 32.7562Z" fill="white"/>
</svg>
