<svg width="45" height="45" viewBox="0 0 45 45" fill="none" xmlns="http://www.w3.org/2000/svg">
<path d="M22.5 0C34.926 0 45 10.074 45 22.5C45 34.926 34.926 45 22.5 45C10.074 45 0 34.926 0 22.5C0 10.074 10.074 0 22.5 0Z" fill="#D60000"/>
<path d="M22.4 14C23.514 14 24.582 14.458 25.37 15.273C26.158 16.088 26.6 17.193 26.6 18.345C26.6 19.497 26.157 20.602 25.37 21.417C24.582 22.232 23.514 22.69 22.4 22.69C21.286 22.69 20.218 22.232 19.43 21.417C18.642 20.602 18.2 19.497 18.2 18.345C18.2 17.193 18.642 16.088 19.43 15.273C20.218 14.458 21.287 14 22.4 14ZM14 17.104C14.672 17.104 15.296 17.29 15.836 17.625C15.656 19.4 16.16 21.163 17.192 22.541C16.592 23.733 15.392 24.552 14 24.552C13.045 24.552 12.13 24.16 11.454 23.461C10.779 22.763 10.4 21.815 10.4 20.828C10.4 19.841 10.779 18.893 11.454 18.195C12.13 17.496 13.046 17.104 14 17.104ZM30.8 17.104C31.755 17.104 32.671 17.496 33.346 18.195C34.021 18.893 34.4 19.841 34.4 20.828C34.4 21.815 34.021 22.763 33.346 23.461C32.671 24.159 31.755 24.552 30.8 24.552C29.408 24.552 28.208 23.733 27.608 22.541C28.654 21.144 29.14 19.383 28.964 17.625C29.504 17.29 30.128 17.104 30.8 17.104ZM14.6 29.828C14.6 27.258 18.092 25.173 22.4 25.173C26.708 25.173 30.2 27.259 30.2 29.828V32H14.6V29.828ZM8 32V30.138C8 28.413 10.268 26.96 13.34 26.538C12.632 27.382 12.2 28.549 12.2 29.828V32H8ZM36.8 32H32.6V29.828C32.6 28.549 32.168 27.383 31.46 26.538C34.532 26.96 36.8 28.413 36.8 30.138V32Z" fill="white"/>
</svg>
