<svg xmlns="http://www.w3.org/2000/svg" width="30" height="24" viewBox="0 0 30 24" fill="none"><path d="M29.4259 2.76617C28.3609 3.25025 27.2129 3.56836 26.0235 3.7205C27.2406 2.98747 28.1811 1.82567 28.6237 0.428757C27.4757 1.1203 26.2033 1.60438 24.8617 1.881C23.769 0.691543 22.2338 0 20.4911 0C17.2409 0 14.5853 2.65553 14.5853 5.93344C14.5853 6.40369 14.6407 6.86011 14.7375 7.28887C9.8137 7.03991 5.42932 4.67483 2.51101 1.09264C1.99926 1.96398 1.70882 2.98747 1.70882 4.06627C1.70882 6.12707 2.74613 7.95275 4.35051 8.99006C3.36852 8.99006 2.45568 8.71344 1.65349 8.29852V8.34001C1.65349 11.2168 3.70046 13.6234 6.41131 14.1628C5.54097 14.401 4.62726 14.4341 3.74195 14.2596C4.11761 15.4387 4.85331 16.4704 5.84565 17.2096C6.83799 17.9489 8.03705 18.3587 9.2743 18.3812C7.17703 20.0415 4.57733 20.939 1.90245 20.9261C1.4322 20.9261 0.961949 20.8984 0.491699 20.8431C3.11956 22.5305 6.24534 23.5125 9.59241 23.5125C20.4911 23.5125 26.4799 14.4671 26.4799 6.62498C26.4799 6.3622 26.4799 6.11324 26.4661 5.85045C27.6279 5.0206 28.6237 3.96946 29.4259 2.76617Z" fill="#1E1E1E"></path></svg>