<?xml version="1.0" encoding="utf-8"?>
<!-- Generator: Adobe Illustrator 17.0.0, SVG Export Plug-In . SVG Version: 6.00 Build 0)  -->
<!DOCTYPE svg PUBLIC "-//W3C//DTD SVG 1.1//EN" "http://www.w3.org/Graphics/SVG/1.1/DTD/svg11.dtd">
<svg version="1.1" id="katman_1" xmlns="http://www.w3.org/2000/svg" xmlns:xlink="http://www.w3.org/1999/xlink" x="0px" y="0px"
	 width="40px" height="36px" viewBox="0 0 40 36" enable-background="new 0 0 40 36" xml:space="preserve">
<g>
	
		<radialGradient id="SVGID_1_" cx="28.7012" cy="-561.3486" r="1.3722" gradientTransform="matrix(24.8544 0 0 24.8544 -710.4029 13969.9658)" gradientUnits="userSpaceOnUse">
		<stop  offset="0" style="stop-color:#5D9DF6"/>
		<stop  offset="1" style="stop-color:#006FFF"/>
	</radialGradient>
	<path fill="url(#SVGID_1_)" d="M20,0.948c9.419,0,17.052,7.634,17.052,17.052S29.419,35.052,20,35.052S2.948,27.419,2.948,18
		S10.581,0.948,20,0.948z"/>
	<path fill="#FFFFFF" d="M13.785,14.117c3.43-3.35,8.999-3.35,12.429,0l0.413,0.406c0.173,0.167,0.173,0.44,0,0.606l-1.412,1.379
		c-0.087,0.087-0.226,0.087-0.313,0l-0.566-0.553c-2.398-2.338-6.275-2.338-8.673,0l-0.606,0.593c-0.087,0.087-0.226,0.087-0.313,0
		l-1.412-1.379c-0.173-0.167-0.173-0.44,0-0.606L13.785,14.117z M29.139,16.968l1.259,1.226c0.173,0.167,0.173,0.44,0,0.606
		l-5.669,5.535c-0.173,0.167-0.453,0.167-0.619,0l0,0l-4.023-3.93c-0.04-0.04-0.113-0.04-0.153,0l0,0l-4.023,3.93
		c-0.173,0.167-0.453,0.167-0.619,0l0,0l-5.689-5.535c-0.173-0.167-0.173-0.44,0-0.606l1.259-1.226c0.173-0.167,0.453-0.167,0.619,0
		l4.023,3.93c0.04,0.04,0.113,0.04,0.153,0l0,0l4.023-3.93c0.173-0.167,0.453-0.167,0.619,0l0,0l4.023,3.93
		c0.04,0.04,0.113,0.04,0.153,0l4.023-3.93C28.686,16.801,28.966,16.801,29.139,16.968L29.139,16.968z"/>
</g>
</svg>
