<svg width="44" height="39" viewBox="0 0 44 39" fill="none" xmlns="http://www.w3.org/2000/svg">
<path d="M43.2482 37.2974L43.2457 37.3018C42.9034 37.9001 42.2747 38.2352 41.6273 38.2352H2.37722C1.72331 38.2352 1.1011 37.902 0.748481 37.2996C0.404997 36.6992 0.427297 35.9892 0.755632 35.4317L0.755648 35.4317L0.757815 35.428L20.3828 1.43796C20.7067 0.877329 21.309 0.501614 21.9937 0.5C22.6972 0.500189 23.2986 0.878535 23.6217 1.43796L43.2465 35.4276C43.5712 35.9911 43.5969 36.7018 43.2482 37.2974Z" fill="black" stroke="black"/>
<path fill-rule="evenodd" clip-rule="evenodd" d="M21.9939 3.9541L11.9316 21.3833C22.7658 15.6746 28.2329 19.7495 29.9402 23.9905L29.6042 24.184C29.3408 23.9315 29.0411 23.7072 28.7051 23.5047C26.4438 22.1506 23.6649 22.6256 22.4934 24.5699C21.3219 26.5206 22.2119 29.2006 24.4731 30.5574C28.9321 33.2355 34.6262 32.5989 38.0772 31.8006L21.9939 3.9541Z" fill="#F2E700"/>
</svg>
