<?xml version="1.0" encoding="utf-8"?>
<!-- Generator: Adobe Illustrator 17.0.0, SVG Export Plug-In . SVG Version: 6.00 Build 0)  -->
<!DOCTYPE svg PUBLIC "-//W3C//DTD SVG 1.1//EN" "http://www.w3.org/Graphics/SVG/1.1/DTD/svg11.dtd">
<svg version="1.1" id="Layer_1" xmlns="http://www.w3.org/2000/svg" xmlns:xlink="http://www.w3.org/1999/xlink" x="0px" y="0px"
	 width="168px" height="73px" viewBox="0 0 168 73" enable-background="new 0 0 168 73" xml:space="preserve">
<g>
	<defs>
		<rect id="SVGID_1_" y="0" width="168" height="72.839"/>
	</defs>
	<clipPath id="SVGID_2_">
		<use xlink:href="#SVGID_1_"  overflow="visible"/>
	</clipPath>
	<g clip-path="url(#SVGID_2_)">
		<path fill="#D60000" d="M3.25,1.112h6.94l6.335,12.221l6.305-12.221h6.851l-9.937,19.262v14.711h-6.511V20.374L3.25,1.112z"/>
		<path fill="#D60000" d="M55.008,1.112h6.465v27.807h9.418v6.167H55.009V1.112H55.008z"/>
		<path fill="#D60000" d="M74.277,1.112h6.464v27.807h9.418v6.167H74.277V1.112z"/>
		<path d="M108.351,0.258c4.806,0,8.936,1.74,12.393,5.22c3.457,3.481,5.185,7.722,5.185,12.726c0,4.958-1.705,9.153-5.115,12.587
			c-3.412,3.434-7.55,5.15-12.415,5.15c-5.097,0-9.332-1.763-12.704-5.289c-3.372-3.525-5.058-7.714-5.058-12.564
			c0-3.249,0.785-6.235,2.355-8.961c1.571-2.724,3.731-4.885,6.48-6.478C102.22,1.055,105.181,0.258,108.351,0.258z M108.285,6.586
			c-3.144,0-5.787,1.094-7.926,3.28c-2.142,2.186-3.214,4.965-3.214,8.337c0,3.756,1.348,6.729,4.046,8.914
			c2.094,1.71,4.497,2.564,7.208,2.564c3.064,0,5.676-1.108,7.832-3.326c2.16-2.216,3.236-4.951,3.236-8.198
			c0-3.234-1.086-5.972-3.258-8.211C114.037,7.705,111.395,6.586,108.285,6.586z"/>
		<path fill="#D60000" d="M126.06,1.112h6.36l4.907,21.687l6.062-21.687h5.375l6.151,21.687l4.859-21.687h6.359l-7.651,33.973
			h-6.198l-6.257-21.964l-6.14,21.964h-6.141L126.06,1.112z"/>
		<path d="M13.251,72.263v-35.57h5.59c3.241,0,5.612,0.209,7.113,0.631c2.13,0.564,3.824,1.61,5.081,3.142
			c1.26,1.533,1.888,3.338,1.888,5.416c0,1.356-0.287,2.584-0.858,3.69c-0.571,1.103-1.502,2.138-2.791,3.106
			c2.159,1.015,3.736,2.285,4.735,3.809c1,1.524,1.498,3.326,1.498,5.403c0,1.998-0.514,3.821-1.548,5.466
			c-1.031,1.644-2.362,2.873-3.992,3.687c-1.628,0.814-3.877,1.221-6.749,1.221L13.251,72.263z M20.019,43.149v7.496h1.478
			c1.65,0,2.874-0.345,3.676-1.039c0.801-0.694,1.202-1.636,1.202-2.828c0-1.114-0.38-1.996-1.139-2.648
			c-0.762-0.652-1.916-0.98-3.47-0.98H20.019z M20.019,56.691v9.115h1.696c2.812,0,4.705-0.354,5.684-1.063
			c0.976-0.709,1.466-1.74,1.466-3.095c0-1.533-0.573-2.74-1.723-3.626c-1.146-0.886-3.052-1.33-5.718-1.33H20.019z"/>
		<path d="M39.987,36.629h6.465v29.467h9.418v6.167H39.988L39.987,36.629z"/>
		<path d="M75.439,36.582c4.803,0,8.933,1.738,12.39,5.22c3.457,3.479,5.186,7.72,5.186,12.724c0,4.957-1.705,9.153-5.115,12.587
			c-3.41,3.434-7.549,5.15-12.415,5.15c-5.097,0-9.331-1.763-12.704-5.288c-3.371-3.526-5.058-7.715-5.058-12.565
			c0-3.25,0.785-6.236,2.356-8.96c1.57-2.727,3.731-4.887,6.478-6.478C69.306,37.376,72.265,36.582,75.439,36.582z M75.367,42.91
			c-3.142,0-5.784,1.093-7.925,3.278c-2.14,2.187-3.211,4.966-3.211,8.338c0,3.756,1.347,6.729,4.044,8.914
			c2.094,1.71,4.498,2.564,7.208,2.564c3.066,0,5.676-1.108,7.833-3.327c2.157-2.217,3.236-4.949,3.236-8.197
			c0-3.234-1.085-5.971-3.259-8.209C81.12,44.028,78.481,42.91,75.367,42.91z"/>
		<path fill="#D60000" d="M95.456,65.326l4.596-4.384c3.127,3.305,6.645,4.959,10.553,4.959c3.297,0,6.076-1.127,8.335-3.384
			c2.259-2.257,3.389-5.038,3.389-8.343c0-2.304-0.5-4.349-1.5-6.135c-1-1.786-2.415-3.189-4.245-4.206
			c-1.83-1.02-3.86-1.53-6.097-1.53c-1.906,0-3.648,0.357-5.226,1.07c-1.579,0.713-3.314,2.008-5.208,3.89l-4.454-4.652
			c2.55-2.49,4.96-4.217,7.228-5.181c2.268-0.963,4.858-1.443,7.767-1.443c5.366,0,9.76,1.703,13.177,5.104
			c3.419,3.407,5.129,7.769,5.129,13.091c0,3.445-0.779,6.505-2.334,9.182c-1.558,2.676-3.786,4.829-6.689,6.457
			c-2.903,1.626-6.027,2.442-9.374,2.442c-2.847,0-5.589-0.602-8.226-1.805C99.639,69.255,97.367,67.542,95.456,65.326z"/>
		<path d="M133.538,36.71h6.836v12.256l9.647-12.256h8.12l-12.408,15.867l13.616,19.687h-8.02l-10.955-15.797v15.797h-6.836V36.71z"
			/>
		<path fill="#D60000" d="M51.567,15.019h-7.838v6.213h7.838V15.019z"/>
		<path fill="#D60000" d="M33.032,1.112v33.973h18.535v-6.352H39.449v-6.115v-2.823v-6.213V9.784V7.44h12.118V1.112H33.032z"/>
	</g>
</g>
</svg>
