<?xml version="1.0" encoding="utf-8"?>
<!-- Generator: Adobe Illustrator 17.0.0, SVG Export Plug-In . SVG Version: 6.00 Build 0)  -->
<!DOCTYPE svg PUBLIC "-//W3C//DTD SVG 1.1//EN" "http://www.w3.org/Graphics/SVG/1.1/DTD/svg11.dtd">
<svg version="1.1" id="Layer_1" xmlns="http://www.w3.org/2000/svg" xmlns:xlink="http://www.w3.org/1999/xlink" x="0px" y="0px"
	 width="37px" height="73px" viewBox="0 0 37 73" enable-background="new 0 0 37 73" xml:space="preserve">
<g>
	<path fill="#FFFFFF" d="M18.568,0.258c4.806,0,8.936,1.74,12.393,5.22c3.457,3.481,5.185,7.722,5.185,12.726
		c0,4.958-1.705,9.153-5.115,12.587c-3.412,3.434-7.55,5.15-12.415,5.15c-5.097,0-9.332-1.763-12.704-5.289
		c-3.372-3.525-5.058-7.714-5.058-12.564c0-3.249,0.785-6.235,2.355-8.961C4.78,6.403,6.94,4.242,9.689,2.649
		C12.437,1.055,15.398,0.258,18.568,0.258z M18.502,6.586c-3.144,0-5.787,1.094-7.926,3.28c-2.142,2.186-3.214,4.965-3.214,8.337
		c0,3.756,1.348,6.729,4.046,8.914c2.094,1.71,4.497,2.564,7.208,2.564c3.064,0,5.676-1.108,7.832-3.326
		c2.16-2.216,3.236-4.951,3.236-8.198c0-3.234-1.086-5.972-3.258-8.211C24.254,7.705,21.612,6.586,18.502,6.586z"/>
	<path fill="#D60000" d="M1.778,65.326l4.596-4.384c3.127,3.305,6.645,4.959,10.553,4.959c3.297,0,6.076-1.127,8.335-3.384
		s3.389-5.038,3.389-8.343c0-2.304-0.5-4.349-1.5-6.135c-1-1.786-2.415-3.189-4.245-4.206c-1.83-1.02-3.86-1.53-6.097-1.53
		c-1.906,0-3.648,0.357-5.226,1.07c-1.579,0.713-3.314,2.008-5.208,3.89l-4.454-4.652c2.55-2.49,4.96-4.217,7.228-5.181
		c2.268-0.963,4.858-1.443,7.767-1.443c5.366,0,9.76,1.703,13.177,5.104c3.419,3.407,5.129,7.769,5.129,13.091
		c0,3.445-0.779,6.505-2.334,9.182c-1.558,2.676-3.786,4.829-6.689,6.457c-2.903,1.626-6.027,2.442-9.374,2.442
		c-2.847,0-5.589-0.602-8.226-1.805C5.961,69.255,3.689,67.542,1.778,65.326z"/>
</g>
</svg>
